<svg width="1000" height="1000" viewBox="0 0 1000 1000" fill="none" xmlns="http://www.w3.org/2000/svg">
<path d="M841.755 207.25C900.693 276.053 937.234 360.725 947.215 450.001H767.845C759.118 403.255 738.245 359.3 706.93 322.743C664.635 273.368 606.08 240.744 541.837 230.761C477.595 220.779 411.901 234.096 356.617 268.308C301.334 302.52 260.106 355.371 240.377 417.319C220.649 479.266 223.721 546.227 249.038 606.108C274.356 665.989 320.25 714.843 378.434 743.85C436.618 772.856 503.255 780.102 566.314 764.279C613.002 752.564 655.45 728.775 689.602 695.684L835.938 799.412C776.168 866.475 697.392 914.421 609.52 936.47C505.376 962.602 395.32 950.635 299.227 902.73C203.134 854.824 127.337 774.138 85.5235 675.241C43.7102 576.345 38.6367 465.757 71.2193 363.447C103.802 261.138 171.893 173.85 263.196 117.347C354.5 60.8446 462.997 38.8508 569.097 55.3376C675.196 71.8244 771.903 125.705 841.755 207.25Z" stroke="#1C1634" stroke-width="100"/>
</svg>
