<svg width="1429" height="616" viewBox="0 0 1429 616" fill="none" xmlns="http://www.w3.org/2000/svg">
<mask id="path-1-outside-1_187_609" maskUnits="userSpaceOnUse" x="6" y="327" width="1413" height="277" fill="black">
<rect fill="white" x="6" y="327" width="1413" height="277"/>
<path d="M12.7 541L107.2 331H145.6L240.4 541H199.6L118.3 351.7H133.9L52.9 541H12.7ZM56.2 492.4L66.7 461.8H180.1L190.6 492.4H56.2ZM268.403 541V380.8H305.903V445.9H386.603V380.8H424.103V541H386.603V477.7H305.903V541H268.403ZM584.16 523.6V412.6H522.66L521.76 438.4C521.36 447.6 520.76 456.5 519.96 465.1C519.16 473.5 517.86 481.3 516.06 488.5C514.26 495.5 511.66 501.3 508.26 505.9C504.86 510.5 500.36 513.5 494.76 514.9L457.56 509.2C463.56 509.2 468.36 507.3 471.96 503.5C475.76 499.5 478.66 494.1 480.66 487.3C482.86 480.3 484.46 472.4 485.46 463.6C486.46 454.6 487.16 445.3 487.56 435.7L489.66 380.8H621.66V523.6H584.16ZM451.86 576.7V509.2H645.36V576.7H610.26V541H486.66V576.7H451.86ZM767.652 543.1C754.652 543.1 742.752 540.1 731.952 534.1C721.352 528.1 712.852 519.1 706.452 507.1C700.252 494.9 697.152 479.5 697.152 460.9C697.152 442.1 700.152 426.7 706.152 414.7C712.352 402.7 720.752 393.8 731.352 388C741.952 382 754.052 379 767.652 379C783.452 379 797.352 382.4 809.352 389.2C821.552 396 831.152 405.5 838.152 417.7C845.352 429.9 848.952 444.3 848.952 460.9C848.952 477.5 845.352 492 838.152 504.4C831.152 516.6 821.552 526.1 809.352 532.9C797.352 539.7 783.452 543.1 767.652 543.1ZM678.852 599.2V380.8H714.552V418.6L713.352 461.2L716.352 503.8V599.2H678.852ZM763.452 511C772.452 511 780.452 509 787.452 505C794.652 501 800.352 495.2 804.552 487.6C808.752 480 810.852 471.1 810.852 460.9C810.852 450.5 808.752 441.6 804.552 434.2C800.352 426.6 794.652 420.8 787.452 416.8C780.452 412.8 772.452 410.8 763.452 410.8C754.452 410.8 746.352 412.8 739.152 416.8C731.952 420.8 726.252 426.6 722.052 434.2C717.852 441.6 715.752 450.5 715.752 460.9C715.752 471.1 717.852 480 722.052 487.6C726.252 495.2 731.952 501 739.152 505C746.352 509 754.452 511 763.452 511ZM960.974 543.1C943.174 543.1 927.574 539.6 914.174 532.6C900.974 525.4 890.674 515.6 883.274 503.2C876.074 490.8 872.474 476.7 872.474 460.9C872.474 444.9 875.974 430.8 882.974 418.6C890.174 406.2 899.974 396.5 912.374 389.5C924.974 382.5 939.274 379 955.274 379C970.874 379 984.774 382.4 996.974 389.2C1009.17 396 1018.77 405.6 1025.77 418C1032.77 430.4 1036.27 445 1036.27 461.8C1036.27 463.4 1036.17 465.2 1035.97 467.2C1035.97 469.2 1035.87 471.1 1035.67 472.9H902.174V448H1015.87L1001.17 455.8C1001.37 446.6 999.474 438.5 995.474 431.5C991.474 424.5 985.974 419 978.974 415C972.174 411 964.274 409 955.274 409C946.074 409 937.974 411 930.974 415C924.174 419 918.774 424.6 914.774 431.8C910.974 438.8 909.074 447.1 909.074 456.7V462.7C909.074 472.3 911.274 480.8 915.674 488.2C920.074 495.6 926.274 501.3 934.274 505.3C942.274 509.3 951.474 511.3 961.874 511.3C970.874 511.3 978.974 509.9 986.174 507.1C993.374 504.3 999.774 499.9 1005.37 493.9L1025.47 517C1018.27 525.4 1009.17 531.9 998.174 536.5C987.374 540.9 974.974 543.1 960.974 543.1ZM1151.99 543.1C1134.19 543.1 1118.59 539.6 1105.19 532.6C1091.99 525.4 1081.69 515.6 1074.29 503.2C1067.09 490.8 1063.49 476.7 1063.49 460.9C1063.49 444.9 1066.99 430.8 1073.99 418.6C1081.19 406.2 1090.99 396.5 1103.39 389.5C1115.99 382.5 1130.29 379 1146.29 379C1161.89 379 1175.79 382.4 1187.99 389.2C1200.19 396 1209.79 405.6 1216.79 418C1223.79 430.4 1227.29 445 1227.29 461.8C1227.29 463.4 1227.19 465.2 1226.99 467.2C1226.99 469.2 1226.89 471.1 1226.69 472.9H1093.19V448H1206.89L1192.19 455.8C1192.39 446.6 1190.49 438.5 1186.49 431.5C1182.49 424.5 1176.99 419 1169.99 415C1163.19 411 1155.29 409 1146.29 409C1137.09 409 1128.99 411 1121.99 415C1115.19 419 1109.79 424.6 1105.79 431.8C1101.99 438.8 1100.09 447.1 1100.09 456.7V462.7C1100.09 472.3 1102.29 480.8 1106.69 488.2C1111.09 495.6 1117.29 501.3 1125.29 505.3C1133.29 509.3 1142.49 511.3 1152.89 511.3C1161.89 511.3 1169.99 509.9 1177.19 507.1C1184.39 504.3 1190.79 499.9 1196.39 493.9L1216.49 517C1209.29 525.4 1200.19 531.9 1189.19 536.5C1178.39 540.9 1165.99 543.1 1151.99 543.1ZM1268.31 541V380.8H1346.61C1366.01 380.8 1381.21 384.4 1392.21 391.6C1403.41 398.8 1409.01 409 1409.01 422.2C1409.01 435.2 1403.81 445.4 1393.41 452.8C1383.01 460 1369.21 463.6 1352.01 463.6L1356.51 454.3C1375.91 454.3 1390.31 457.9 1399.71 465.1C1409.31 472.1 1414.11 482.4 1414.11 496C1414.11 510.2 1408.81 521.3 1398.21 529.3C1387.61 537.1 1371.51 541 1349.91 541H1268.31ZM1304.01 513.7H1346.91C1357.11 513.7 1364.81 512.1 1370.01 508.9C1375.21 505.5 1377.81 500.4 1377.81 493.6C1377.81 486.4 1375.41 481.1 1370.61 477.7C1365.81 474.3 1358.31 472.6 1348.11 472.6H1304.01V513.7ZM1304.01 447.7H1343.31C1352.91 447.7 1360.11 446 1364.91 442.6C1369.91 439 1372.41 434 1372.41 427.6C1372.41 421 1369.91 416.1 1364.91 412.9C1360.11 409.7 1352.91 408.1 1343.31 408.1H1304.01V447.7Z"/>
</mask>
<path d="M12.7 541L9.05231 539.359L6.51366 545H12.7V541ZM107.2 331V327H104.614L103.552 329.359L107.2 331ZM145.6 331L149.246 329.354L148.183 327H145.6V331ZM240.4 541V545H246.594L244.046 539.354L240.4 541ZM199.6 541L195.925 542.578L196.965 545H199.6V541ZM118.3 351.7V347.7H112.229L114.625 353.278L118.3 351.7ZM133.9 351.7L137.577 353.274L139.962 347.7H133.9V351.7ZM52.9 541V545H55.5392L56.5775 542.574L52.9 541ZM56.2 492.4L52.4165 491.102L50.5985 496.4H56.2V492.4ZM66.7 461.8V457.8H63.8436L62.9165 460.502L66.7 461.8ZM180.1 461.8L183.883 460.502L182.956 457.8H180.1V461.8ZM190.6 492.4V496.4H196.202L194.383 491.102L190.6 492.4ZM16.3477 542.641L110.848 332.641L103.552 329.359L9.05231 539.359L16.3477 542.641ZM107.2 335H145.6V327H107.2V335ZM141.954 332.646L236.754 542.646L244.046 539.354L149.246 329.354L141.954 332.646ZM240.4 537H199.6V545H240.4V537ZM203.275 539.422L121.975 350.121L114.625 353.278L195.925 542.578L203.275 539.422ZM118.3 355.7H133.9V347.7H118.3V355.7ZM130.223 350.126L49.2225 539.426L56.5775 542.574L137.577 353.274L130.223 350.126ZM52.9 537H12.7V545H52.9V537ZM59.9835 493.698L70.4835 463.098L62.9165 460.502L52.4165 491.102L59.9835 493.698ZM66.7 465.8H180.1V457.8H66.7V465.8ZM176.317 463.098L186.817 493.698L194.383 491.102L183.883 460.502L176.317 463.098ZM190.6 488.4H56.2V496.4H190.6V488.4ZM268.403 541H264.403V545H268.403V541ZM268.403 380.8V376.8H264.403V380.8H268.403ZM305.903 380.8H309.903V376.8H305.903V380.8ZM305.903 445.9H301.903V449.9H305.903V445.9ZM386.603 445.9V449.9H390.603V445.9H386.603ZM386.603 380.8V376.8H382.603V380.8H386.603ZM424.103 380.8H428.103V376.8H424.103V380.8ZM424.103 541V545H428.103V541H424.103ZM386.603 541H382.603V545H386.603V541ZM386.603 477.7H390.603V473.7H386.603V477.7ZM305.903 477.7V473.7H301.903V477.7H305.903ZM305.903 541V545H309.903V541H305.903ZM272.403 541V380.8H264.403V541H272.403ZM268.403 384.8H305.903V376.8H268.403V384.8ZM301.903 380.8V445.9H309.903V380.8H301.903ZM305.903 449.9H386.603V441.9H305.903V449.9ZM390.603 445.9V380.8H382.603V445.9H390.603ZM386.603 384.8H424.103V376.8H386.603V384.8ZM420.103 380.8V541H428.103V380.8H420.103ZM424.103 537H386.603V545H424.103V537ZM390.603 541V477.7H382.603V541H390.603ZM386.603 473.7H305.903V481.7H386.603V473.7ZM301.903 477.7V541H309.903V477.7H301.903ZM305.903 537H268.403V545H305.903V537ZM584.16 523.6H580.16V527.6H584.16V523.6ZM584.16 412.6H588.16V408.6H584.16V412.6ZM522.66 412.6V408.6H518.797L518.663 412.461L522.66 412.6ZM521.76 438.4L525.756 438.574L525.757 438.557L525.758 438.539L521.76 438.4ZM519.96 465.1L523.942 465.479L523.943 465.47L519.96 465.1ZM516.06 488.5L519.934 489.496L519.937 489.483L519.941 489.47L516.06 488.5ZM508.26 505.9L505.043 503.522L508.26 505.9ZM494.76 514.9L494.154 518.854L494.95 518.976L495.73 518.781L494.76 514.9ZM457.56 509.2V505.2L456.954 513.154L457.56 509.2ZM471.96 503.5L469.06 500.745L469.056 500.749L471.96 503.5ZM480.66 487.3L476.844 486.101L476.833 486.136L476.823 486.171L480.66 487.3ZM485.46 463.6L489.435 464.052L489.436 464.042L485.46 463.6ZM487.56 435.7L491.557 435.867L491.557 435.853L487.56 435.7ZM489.66 380.8V376.8H485.81L485.663 380.647L489.66 380.8ZM621.66 380.8H625.66V376.8H621.66V380.8ZM621.66 523.6V527.6H625.66V523.6H621.66ZM451.86 576.7H447.86V580.7H451.86V576.7ZM451.86 509.2V505.2H447.86V509.2H451.86ZM645.36 509.2H649.36V505.2H645.36V509.2ZM645.36 576.7V580.7H649.36V576.7H645.36ZM610.26 576.7H606.26V580.7H610.26V576.7ZM610.26 541H614.26V537H610.26V541ZM486.66 541V537H482.66V541H486.66ZM486.66 576.7V580.7H490.66V576.7H486.66ZM588.16 523.6V412.6H580.16V523.6H588.16ZM584.16 408.6H522.66V416.6H584.16V408.6ZM518.663 412.461L517.763 438.261L525.758 438.539L526.658 412.739L518.663 412.461ZM517.764 438.226C517.367 447.365 516.771 456.199 515.977 464.73L523.943 465.47C524.749 456.801 525.354 447.835 525.756 438.574L517.764 438.226ZM515.978 464.721C515.195 472.948 513.925 480.548 512.18 487.53L519.941 489.47C521.795 482.052 523.126 474.052 523.942 465.479L515.978 464.721ZM512.186 487.504C510.482 494.132 508.069 499.43 505.043 503.522L511.477 508.278C515.252 503.17 518.038 496.868 519.934 489.496L512.186 487.504ZM505.043 503.522C502.201 507.368 498.498 509.842 493.79 511.019L495.73 518.781C502.222 517.158 507.52 513.631 511.477 508.278L505.043 503.522ZM495.366 510.946L458.166 505.246L456.954 513.154L494.154 518.854L495.366 510.946ZM457.56 513.2C464.483 513.2 470.396 510.968 474.864 506.251L469.056 500.749C466.325 503.632 462.638 505.2 457.56 505.2V513.2ZM474.86 506.255C479.204 501.683 482.368 495.669 484.498 488.429L476.823 486.171C474.952 492.531 472.317 497.317 469.06 500.745L474.86 506.255ZM484.476 488.499C486.766 481.212 488.411 473.055 489.435 464.052L481.486 463.148C480.509 471.745 478.954 479.388 476.844 486.101L484.476 488.499ZM489.436 464.042C490.446 454.945 491.153 445.553 491.557 435.867L483.564 435.533C483.167 445.047 482.474 454.255 481.485 463.158L489.436 464.042ZM491.557 435.853L493.657 380.953L485.663 380.647L483.563 435.547L491.557 435.853ZM489.66 384.8H621.66V376.8H489.66V384.8ZM617.66 380.8V523.6H625.66V380.8H617.66ZM621.66 519.6H584.16V527.6H621.66V519.6ZM455.86 576.7V509.2H447.86V576.7H455.86ZM451.86 513.2H645.36V505.2H451.86V513.2ZM641.36 509.2V576.7H649.36V509.2H641.36ZM645.36 572.7H610.26V580.7H645.36V572.7ZM614.26 576.7V541H606.26V576.7H614.26ZM610.26 537H486.66V545H610.26V537ZM482.66 541V576.7H490.66V541H482.66ZM486.66 572.7H451.86V580.7H486.66V572.7ZM731.952 534.1L729.982 537.581L729.996 537.589L730.01 537.597L731.952 534.1ZM706.452 507.1L702.886 508.912L702.904 508.947L702.923 508.982L706.452 507.1ZM706.152 414.7L702.599 412.864L702.586 412.887L702.575 412.911L706.152 414.7ZM731.352 388L733.272 391.509L733.298 391.495L733.323 391.481L731.352 388ZM809.352 389.2L807.38 392.68L807.393 392.687L807.405 392.694L809.352 389.2ZM838.152 417.7L834.683 419.691L834.695 419.712L834.708 419.733L838.152 417.7ZM838.152 504.4L834.693 502.391L834.688 502.4L834.683 502.409L838.152 504.4ZM809.352 532.9L807.405 529.406L807.393 529.413L807.38 529.42L809.352 532.9ZM678.852 599.2H674.852V603.2H678.852V599.2ZM678.852 380.8V376.8H674.852V380.8H678.852ZM714.552 380.8H718.552V376.8H714.552V380.8ZM714.552 418.6L718.551 418.713L718.552 418.656V418.6H714.552ZM713.352 461.2L709.354 461.087L709.348 461.284L709.362 461.481L713.352 461.2ZM716.352 503.8H720.352V503.659L720.342 503.519L716.352 503.8ZM716.352 599.2V603.2H720.352V599.2H716.352ZM787.452 505L785.51 501.503L785.489 501.515L785.468 501.527L787.452 505ZM804.552 487.6L801.051 485.665L804.552 487.6ZM804.552 434.2L801.051 436.135L801.062 436.155L801.074 436.174L804.552 434.2ZM787.452 416.8L785.468 420.273L785.489 420.285L785.51 420.297L787.452 416.8ZM739.152 416.8L737.21 413.303L739.152 416.8ZM722.052 434.2L725.531 436.174L725.542 436.155L725.553 436.135L722.052 434.2ZM739.152 505L741.095 501.503L739.152 505ZM767.652 539.1C755.295 539.1 744.069 536.256 733.895 530.603L730.01 537.597C741.435 543.944 754.009 547.1 767.652 547.1V539.1ZM733.923 530.619C724.059 525.036 716.067 516.628 709.982 505.218L702.923 508.982C709.637 521.572 718.646 531.164 729.982 537.581L733.923 530.619ZM710.018 505.288C704.187 493.814 701.152 479.085 701.152 460.9H693.152C693.152 479.915 696.317 495.986 702.886 508.912L710.018 505.288ZM701.152 460.9C701.152 442.487 704.096 427.756 709.73 416.489L702.575 412.911C696.208 425.644 693.152 441.713 693.152 460.9H701.152ZM709.706 416.536C715.585 405.157 723.452 396.882 733.272 391.509L729.432 384.491C718.052 390.718 709.12 400.243 702.599 412.864L709.706 416.536ZM733.323 391.481C743.254 385.86 754.661 383 767.652 383V375C753.444 375 740.651 378.14 729.382 384.519L733.323 391.481ZM767.652 383C782.863 383 796.065 386.268 807.38 392.68L811.324 385.72C798.64 378.532 784.042 375 767.652 375V383ZM807.405 392.694C818.966 399.138 828.042 408.116 834.683 419.691L841.622 415.709C834.263 402.884 824.139 392.862 811.3 385.706L807.405 392.694ZM834.708 419.733C841.486 431.218 844.952 444.891 844.952 460.9H852.952C852.952 443.709 849.219 428.582 841.597 415.667L834.708 419.733ZM844.952 460.9C844.952 476.907 841.486 490.692 834.693 502.391L841.612 506.409C849.218 493.308 852.952 478.093 852.952 460.9H844.952ZM834.683 502.409C828.042 513.984 818.966 522.962 807.405 529.406L811.3 536.394C824.139 529.238 834.263 519.216 841.622 506.391L834.683 502.409ZM807.38 529.42C796.065 535.832 782.863 539.1 767.652 539.1V547.1C784.042 547.1 798.64 543.568 811.324 536.38L807.38 529.42ZM682.852 599.2V380.8H674.852V599.2H682.852ZM678.852 384.8H714.552V376.8H678.852V384.8ZM710.552 380.8V418.6H718.552V380.8H710.552ZM710.554 418.487L709.354 461.087L717.351 461.313L718.551 418.713L710.554 418.487ZM709.362 461.481L712.362 504.081L720.342 503.519L717.342 460.919L709.362 461.481ZM712.352 503.8V599.2H720.352V503.8H712.352ZM716.352 595.2H678.852V603.2H716.352V595.2ZM763.452 515C773.066 515 781.765 512.857 789.437 508.473L785.468 501.527C779.14 505.143 771.839 507 763.452 507V515ZM789.395 508.497C797.287 504.112 803.511 497.754 808.053 489.535L801.051 485.665C797.194 492.646 792.018 497.888 785.51 501.503L789.395 508.497ZM808.053 489.535C812.634 481.247 814.852 471.658 814.852 460.9H806.852C806.852 470.542 804.871 478.753 801.051 485.665L808.053 489.535ZM814.852 460.9C814.852 449.961 812.641 440.348 808.031 432.226L801.074 436.174C804.864 442.852 806.852 451.039 806.852 460.9H814.852ZM808.053 432.265C803.511 424.046 797.287 417.688 789.395 413.303L785.51 420.297C792.018 423.912 797.194 429.154 801.051 436.135L808.053 432.265ZM789.437 413.327C781.765 408.943 773.066 406.8 763.452 406.8V414.8C771.839 414.8 779.14 416.657 785.468 420.273L789.437 413.327ZM763.452 406.8C753.837 406.8 745.058 408.943 737.21 413.303L741.095 420.297C747.647 416.657 755.068 414.8 763.452 414.8V406.8ZM737.21 413.303C729.318 417.688 723.094 424.046 718.551 432.265L725.553 436.135C729.411 429.154 734.587 423.912 741.095 420.297L737.21 413.303ZM718.574 432.226C713.964 440.348 711.752 449.961 711.752 460.9H719.752C719.752 451.039 721.741 442.852 725.531 436.174L718.574 432.226ZM711.752 460.9C711.752 471.658 713.971 481.247 718.551 489.535L725.553 485.665C721.734 478.753 719.752 470.542 719.752 460.9H711.752ZM718.551 489.535C723.094 497.754 729.318 504.112 737.21 508.497L741.095 501.503C734.587 497.888 729.411 492.646 725.553 485.665L718.551 489.535ZM737.21 508.497C745.058 512.857 753.837 515 763.452 515V507C755.068 507 747.647 505.143 741.095 501.503L737.21 508.497ZM914.174 532.6L912.259 536.112L912.29 536.129L912.322 536.145L914.174 532.6ZM883.274 503.2L879.815 505.209L879.827 505.229L879.839 505.25L883.274 503.2ZM882.974 418.6L879.515 416.591L879.51 416.6L879.505 416.609L882.974 418.6ZM912.374 389.5L910.432 386.003L910.42 386.01L910.408 386.017L912.374 389.5ZM996.974 389.2L998.922 385.706L996.974 389.2ZM1035.97 467.2L1031.99 466.802L1031.97 467V467.2H1035.97ZM1035.67 472.9V476.9H1039.25L1039.65 473.342L1035.67 472.9ZM902.174 472.9H898.174V476.9H902.174V472.9ZM902.174 448V444H898.174V448H902.174ZM1015.87 448L1017.75 451.533L1015.87 444V448ZM1001.17 455.8L997.175 455.713L997.027 462.529L1003.05 459.333L1001.17 455.8ZM995.474 431.5L992.001 433.485L995.474 431.5ZM978.974 415L976.946 418.448L976.968 418.46L976.99 418.473L978.974 415ZM930.974 415L928.99 411.527L928.968 411.54L928.946 411.552L930.974 415ZM914.774 431.8L911.278 429.857L911.268 429.874L911.259 429.892L914.774 431.8ZM934.274 505.3L932.485 508.878L934.274 505.3ZM986.174 507.1L987.624 510.828L986.174 507.1ZM1005.37 493.9L1008.39 491.274L1005.48 487.926L1002.45 491.171L1005.37 493.9ZM1025.47 517L1028.51 519.603L1030.76 516.98L1028.49 514.374L1025.47 517ZM998.174 536.5L999.683 540.204L999.7 540.197L999.717 540.19L998.174 536.5ZM960.974 539.1C943.705 539.1 928.761 535.707 916.026 529.055L912.322 536.145C926.387 543.493 942.643 547.1 960.974 547.1V539.1ZM916.09 529.088C903.491 522.216 893.727 512.91 886.709 501.15L879.839 505.25C887.622 518.29 898.458 528.584 912.259 536.112L916.09 529.088ZM886.733 501.191C879.923 489.462 876.474 476.068 876.474 460.9H868.474C868.474 477.332 872.225 492.138 879.815 505.209L886.733 501.191ZM876.474 460.9C876.474 445.501 879.837 432.105 886.444 420.591L879.505 416.609C872.112 429.495 868.474 444.299 868.474 460.9H876.474ZM886.433 420.609C893.279 408.82 902.565 399.631 914.341 392.983L910.408 386.017C897.383 393.369 887.07 403.58 879.515 416.591L886.433 420.609ZM914.317 392.997C926.259 386.362 939.878 383 955.274 383V375C938.671 375 923.689 378.638 910.432 386.003L914.317 392.997ZM955.274 383C970.274 383 983.489 386.263 995.027 392.694L998.922 385.706C986.059 378.537 971.475 375 955.274 375V383ZM995.027 392.694C1006.57 399.128 1015.65 408.194 1022.29 419.966L1029.26 416.034C1021.9 403.006 1011.78 392.872 998.922 385.706L995.027 392.694ZM1022.29 419.966C1028.9 431.667 1032.27 445.565 1032.27 461.8H1040.27C1040.27 444.435 1036.65 429.133 1029.26 416.034L1022.29 419.966ZM1032.27 461.8C1032.27 463.239 1032.18 464.902 1031.99 466.802L1039.95 467.598C1040.16 465.498 1040.27 463.561 1040.27 461.8H1032.27ZM1031.97 467.2C1031.97 469.067 1031.88 470.819 1031.7 472.458L1039.65 473.342C1039.87 471.381 1039.97 469.333 1039.97 467.2H1031.97ZM1035.67 468.9H902.174V476.9H1035.67V468.9ZM906.174 472.9V448H898.174V472.9H906.174ZM902.174 452H1015.87V444H902.174V452ZM1014 444.467L999.299 452.267L1003.05 459.333L1017.75 451.533L1014 444.467ZM1005.17 455.887C1005.39 446.066 1003.36 437.23 998.947 429.515L992.001 433.485C995.593 439.77 997.362 447.134 997.175 455.713L1005.17 455.887ZM998.947 429.515C994.593 421.895 988.579 415.881 980.959 411.527L976.99 418.473C983.37 422.119 988.356 427.105 992.001 433.485L998.947 429.515ZM981.002 411.552C973.505 407.142 964.885 405 955.274 405V413C963.663 413 970.843 414.858 976.946 418.448L981.002 411.552ZM955.274 405C945.478 405 936.675 407.135 928.99 411.527L932.959 418.473C939.273 414.865 946.671 413 955.274 413V405ZM928.946 411.552C921.503 415.93 915.608 422.062 911.278 429.857L918.271 433.743C921.94 427.138 926.845 422.07 933.002 418.448L928.946 411.552ZM911.259 429.892C907.082 437.586 905.074 446.57 905.074 456.7H913.074C913.074 447.63 914.867 440.014 918.29 433.708L911.259 429.892ZM905.074 456.7V462.7H913.074V456.7H905.074ZM905.074 462.7C905.074 472.935 907.427 482.157 912.236 490.244L919.112 486.156C915.121 479.443 913.074 471.665 913.074 462.7H905.074ZM912.236 490.244C917.043 498.329 923.828 504.549 932.485 508.878L936.063 501.722C928.72 498.051 923.105 492.871 919.112 486.156L912.236 490.244ZM932.485 508.878C941.125 513.197 950.954 515.3 961.874 515.3V507.3C951.994 507.3 943.424 505.403 936.063 501.722L932.485 508.878ZM961.874 515.3C971.29 515.3 979.892 513.835 987.624 510.828L984.724 503.372C978.056 505.965 970.459 507.3 961.874 507.3V515.3ZM987.624 510.828C995.419 507.797 1002.31 503.041 1008.3 496.629L1002.45 491.171C997.234 496.759 991.329 500.803 984.724 503.372L987.624 510.828ZM1002.36 496.526L1022.46 519.626L1028.49 514.374L1008.39 491.274L1002.36 496.526ZM1022.44 514.397C1015.67 522.287 1007.1 528.431 996.631 532.81L999.717 540.19C1011.25 535.369 1020.87 528.513 1028.51 519.603L1022.44 514.397ZM996.665 532.796C986.43 536.965 974.558 539.1 960.974 539.1V547.1C975.39 547.1 988.318 544.835 999.683 540.204L996.665 532.796ZM1105.19 532.6L1103.27 536.112L1103.31 536.129L1103.34 536.145L1105.19 532.6ZM1074.29 503.2L1070.83 505.209L1070.84 505.229L1070.85 505.25L1074.29 503.2ZM1073.99 418.6L1070.53 416.591L1070.53 416.6L1070.52 416.609L1073.99 418.6ZM1103.39 389.5L1101.45 386.003L1101.44 386.01L1101.42 386.017L1103.39 389.5ZM1187.99 389.2L1189.94 385.706L1187.99 389.2ZM1226.99 467.2L1223.01 466.802L1222.99 467V467.2H1226.99ZM1226.69 472.9V476.9H1230.27L1230.67 473.342L1226.69 472.9ZM1093.19 472.9H1089.19V476.9H1093.19V472.9ZM1093.19 448V444H1089.19V448H1093.19ZM1206.89 448L1208.76 451.533L1206.89 444V448ZM1192.19 455.8L1188.19 455.713L1188.04 462.529L1194.06 459.333L1192.19 455.8ZM1186.49 431.5L1183.02 433.485L1186.49 431.5ZM1169.99 415L1167.96 418.448L1167.98 418.46L1168.01 418.473L1169.99 415ZM1121.99 415L1120.01 411.527L1119.98 411.54L1119.96 411.552L1121.99 415ZM1105.79 431.8L1102.29 429.857L1102.28 429.874L1102.27 429.892L1105.79 431.8ZM1125.29 505.3L1123.5 508.878L1125.29 505.3ZM1177.19 507.1L1178.64 510.828L1177.19 507.1ZM1196.39 493.9L1199.41 491.274L1196.49 487.926L1193.47 491.171L1196.39 493.9ZM1216.49 517L1219.53 519.603L1221.78 516.98L1219.51 514.374L1216.49 517ZM1189.19 536.5L1190.7 540.204L1190.72 540.197L1190.73 540.19L1189.19 536.5ZM1151.99 539.1C1134.72 539.1 1119.78 535.707 1107.04 529.055L1103.34 536.145C1117.4 543.493 1133.66 547.1 1151.99 547.1V539.1ZM1107.11 529.088C1094.51 522.216 1084.74 512.91 1077.72 501.15L1070.85 505.25C1078.64 518.29 1089.47 528.584 1103.27 536.112L1107.11 529.088ZM1077.75 501.191C1070.94 489.462 1067.49 476.068 1067.49 460.9H1059.49C1059.49 477.332 1063.24 492.138 1070.83 505.209L1077.75 501.191ZM1067.49 460.9C1067.49 445.501 1070.85 432.105 1077.46 420.591L1070.52 416.609C1063.13 429.495 1059.49 444.299 1059.49 460.9H1067.49ZM1077.45 420.609C1084.29 408.82 1093.58 399.631 1105.36 392.983L1101.42 386.017C1088.4 393.369 1078.09 403.58 1070.53 416.591L1077.45 420.609ZM1105.33 392.997C1117.27 386.362 1130.89 383 1146.29 383V375C1129.69 375 1114.7 378.638 1101.45 386.003L1105.33 392.997ZM1146.29 383C1161.29 383 1174.51 386.263 1186.04 392.694L1189.94 385.706C1177.07 378.537 1162.49 375 1146.29 375V383ZM1186.04 392.694C1197.59 399.128 1206.66 408.194 1213.31 419.966L1220.27 416.034C1212.92 403.006 1202.79 392.872 1189.94 385.706L1186.04 392.694ZM1213.31 419.966C1219.91 431.667 1223.29 445.565 1223.29 461.8H1231.29C1231.29 444.435 1227.67 429.133 1220.27 416.034L1213.31 419.966ZM1223.29 461.8C1223.29 463.239 1223.2 464.902 1223.01 466.802L1230.97 467.598C1231.18 465.498 1231.29 463.561 1231.29 461.8H1223.29ZM1222.99 467.2C1222.99 469.067 1222.9 470.819 1222.71 472.458L1230.67 473.342C1230.88 471.381 1230.99 469.333 1230.99 467.2H1222.99ZM1226.69 468.9H1093.19V476.9H1226.69V468.9ZM1097.19 472.9V448H1089.19V472.9H1097.19ZM1093.19 452H1206.89V444H1093.19V452ZM1205.02 444.467L1190.31 452.267L1194.06 459.333L1208.76 451.533L1205.02 444.467ZM1196.19 455.887C1196.4 446.066 1194.37 437.23 1189.96 429.515L1183.02 433.485C1186.61 439.77 1188.38 447.134 1188.19 455.713L1196.19 455.887ZM1189.96 429.515C1185.61 421.895 1179.59 415.881 1171.97 411.527L1168.01 418.473C1174.39 422.119 1179.37 427.105 1183.02 433.485L1189.96 429.515ZM1172.02 411.552C1164.52 407.142 1155.9 405 1146.29 405V413C1154.68 413 1161.86 414.858 1167.96 418.448L1172.02 411.552ZM1146.29 405C1136.49 405 1127.69 407.135 1120.01 411.527L1123.97 418.473C1130.29 414.865 1137.69 413 1146.29 413V405ZM1119.96 411.552C1112.52 415.93 1106.62 422.062 1102.29 429.857L1109.29 433.743C1112.96 427.138 1117.86 422.07 1124.02 418.448L1119.96 411.552ZM1102.27 429.892C1098.1 437.586 1096.09 446.57 1096.09 456.7H1104.09C1104.09 447.63 1105.88 440.014 1109.31 433.708L1102.27 429.892ZM1096.09 456.7V462.7H1104.09V456.7H1096.09ZM1096.09 462.7C1096.09 472.935 1098.44 482.157 1103.25 490.244L1110.13 486.156C1106.14 479.443 1104.09 471.665 1104.09 462.7H1096.09ZM1103.25 490.244C1108.06 498.329 1114.84 504.549 1123.5 508.878L1127.08 501.722C1119.74 498.051 1114.12 492.871 1110.13 486.156L1103.25 490.244ZM1123.5 508.878C1132.14 513.197 1141.97 515.3 1152.89 515.3V507.3C1143.01 507.3 1134.44 505.403 1127.08 501.722L1123.5 508.878ZM1152.89 515.3C1162.31 515.3 1170.91 513.835 1178.64 510.828L1175.74 503.372C1169.07 505.965 1161.47 507.3 1152.89 507.3V515.3ZM1178.64 510.828C1186.43 507.797 1193.33 503.041 1199.31 496.629L1193.47 491.171C1188.25 496.759 1182.35 500.803 1175.74 503.372L1178.64 510.828ZM1193.37 496.526L1213.47 519.626L1219.51 514.374L1199.41 491.274L1193.37 496.526ZM1213.45 514.397C1206.69 522.287 1198.12 528.431 1187.65 532.81L1190.73 540.19C1202.26 535.369 1211.89 528.513 1219.53 519.603L1213.45 514.397ZM1187.68 532.796C1177.45 536.965 1165.57 539.1 1151.99 539.1V547.1C1166.41 547.1 1179.33 544.835 1190.7 540.204L1187.68 532.796ZM1268.31 541H1264.31V545H1268.31V541ZM1268.31 380.8V376.8H1264.31V380.8H1268.31ZM1392.21 391.6L1390.01 394.947L1390.03 394.956L1390.04 394.965L1392.21 391.6ZM1393.41 452.8L1395.68 456.089L1395.7 456.074L1395.72 456.059L1393.41 452.8ZM1352.01 463.6L1348.4 461.858L1345.63 467.6H1352.01V463.6ZM1356.51 454.3V450.3H1354L1352.9 452.558L1356.51 454.3ZM1399.71 465.1L1397.27 468.276L1397.31 468.304L1397.35 468.332L1399.71 465.1ZM1398.21 529.3L1400.58 532.522L1400.6 532.507L1400.62 532.493L1398.21 529.3ZM1304.01 513.7H1300.01V517.7H1304.01V513.7ZM1370.01 508.9L1372.1 512.307L1372.15 512.278L1372.19 512.248L1370.01 508.9ZM1370.61 477.7L1368.29 480.964L1370.61 477.7ZM1304.01 472.6V468.6H1300.01V472.6H1304.01ZM1304.01 447.7H1300.01V451.7H1304.01V447.7ZM1364.91 442.6L1367.22 445.864L1367.23 445.855L1367.24 445.846L1364.91 442.6ZM1364.91 412.9L1362.69 416.228L1362.72 416.249L1362.75 416.269L1364.91 412.9ZM1304.01 408.1V404.1H1300.01V408.1H1304.01ZM1272.31 541V380.8H1264.31V541H1272.31ZM1268.31 384.8H1346.61V376.8H1268.31V384.8ZM1346.61 384.8C1365.58 384.8 1379.91 388.331 1390.01 394.947L1394.4 388.253C1382.5 380.469 1366.43 376.8 1346.61 376.8V384.8ZM1390.04 394.965C1400.11 401.436 1405.01 410.375 1405.01 422.2H1413.01C1413.01 407.625 1406.7 396.164 1394.37 388.235L1390.04 394.965ZM1405.01 422.2C1405.01 433.934 1400.41 442.908 1391.09 449.541L1395.72 456.059C1407.2 447.892 1413.01 436.466 1413.01 422.2H1405.01ZM1391.13 449.511C1381.6 456.108 1368.68 459.6 1352.01 459.6V467.6C1369.73 467.6 1384.41 463.892 1395.68 456.089L1391.13 449.511ZM1355.61 465.342L1360.11 456.042L1352.9 452.558L1348.4 461.858L1355.61 465.342ZM1356.51 458.3C1375.54 458.3 1388.89 461.856 1397.27 468.276L1402.14 461.924C1391.72 453.944 1376.27 450.3 1356.51 450.3V458.3ZM1397.35 468.332C1405.76 474.462 1410.11 483.466 1410.11 496H1418.11C1418.11 481.334 1412.85 469.738 1402.06 461.868L1397.35 468.332ZM1410.11 496C1410.11 509.046 1405.32 518.922 1395.8 526.107L1400.62 532.493C1412.29 523.678 1418.11 511.354 1418.11 496H1410.11ZM1395.83 526.078C1386.24 533.14 1371.15 537 1349.91 537V545C1371.86 545 1388.97 541.06 1400.58 532.522L1395.83 526.078ZM1349.91 537H1268.31V545H1349.91V537ZM1304.01 517.7H1346.91V509.7H1304.01V517.7ZM1346.91 517.7C1357.4 517.7 1365.98 516.075 1372.1 512.307L1367.91 505.493C1363.63 508.125 1356.81 509.7 1346.91 509.7V517.7ZM1372.19 512.248C1378.65 508.03 1381.81 501.599 1381.81 493.6H1373.81C1373.81 499.201 1371.77 502.97 1367.82 505.552L1372.19 512.248ZM1381.81 493.6C1381.81 485.431 1379.02 478.757 1372.92 474.436L1368.29 480.964C1371.79 483.443 1373.81 487.369 1373.81 493.6H1381.81ZM1372.92 474.436C1367.1 470.319 1358.59 468.6 1348.11 468.6V476.6C1358.02 476.6 1364.51 478.281 1368.29 480.964L1372.92 474.436ZM1348.11 468.6H1304.01V476.6H1348.11V468.6ZM1300.01 472.6V513.7H1308.01V472.6H1300.01ZM1304.01 451.7H1343.31V443.7H1304.01V451.7ZM1343.31 451.7C1353.26 451.7 1361.44 449.96 1367.22 445.864L1362.59 439.336C1358.78 442.04 1352.55 443.7 1343.31 443.7V451.7ZM1367.24 445.846C1373.33 441.461 1376.41 435.228 1376.41 427.6H1368.41C1368.41 432.772 1366.48 436.539 1362.57 439.354L1367.24 445.846ZM1376.41 427.6C1376.41 419.817 1373.35 413.559 1367.06 409.531L1362.75 416.269C1366.46 418.641 1368.41 422.183 1368.41 427.6H1376.41ZM1367.12 409.572C1361.36 405.73 1353.22 404.1 1343.31 404.1V412.1C1352.59 412.1 1358.85 413.67 1362.69 416.228L1367.12 409.572ZM1343.31 404.1H1304.01V412.1H1343.31V404.1ZM1300.01 408.1V447.7H1308.01V408.1H1300.01Z" fill="white" mask="url(#path-1-outside-1_187_609)"/>
<mask id="path-3-outside-2_187_609" maskUnits="userSpaceOnUse" x="9" y="63" width="1124" height="291" fill="black">
<rect fill="white" x="9" y="63" width="1124" height="291"/>
<path d="M126 294C110 294 95.1 291.4 81.3 286.2C67.7 280.8 55.8 273.3 45.6 263.7C35.6 253.9 27.8 242.4 22.2 229.2C16.6 216 13.8 201.6 13.8 186C13.8 170.4 16.6 156 22.2 142.8C27.8 129.6 35.7 118.2 45.9 108.6C56.1 98.8 68 91.3 81.6 86.1C95.2 80.7 110.1 78 126.3 78C143.5 78 159.2 81 173.4 87C187.6 92.8 199.6 101.5 209.4 113.1L184.2 136.8C176.6 128.6 168.1 122.5 158.7 118.5C149.3 114.3 139.1 112.2 128.1 112.2C117.1 112.2 107 114 97.8 117.6C88.8 121.2 80.9 126.3 74.1 132.9C67.5 139.5 62.3 147.3 58.5 156.3C54.9 165.3 53.1 175.2 53.1 186C53.1 196.8 54.9 206.7 58.5 215.7C62.3 224.7 67.5 232.5 74.1 239.1C80.9 245.7 88.8 250.8 97.8 254.4C107 258 117.1 259.8 128.1 259.8C139.1 259.8 149.3 257.8 158.7 253.8C168.1 249.6 176.6 243.3 184.2 234.9L209.4 258.9C199.6 270.3 187.6 279 173.4 285C159.2 291 143.4 294 126 294ZM309.959 293.1C292.159 293.1 276.559 289.6 263.159 282.6C249.959 275.4 239.659 265.6 232.259 253.2C225.059 240.8 221.459 226.7 221.459 210.9C221.459 194.9 224.959 180.8 231.959 168.6C239.159 156.2 248.959 146.5 261.359 139.5C273.959 132.5 288.259 129 304.259 129C319.859 129 333.759 132.4 345.959 139.2C358.159 146 367.759 155.6 374.759 168C381.759 180.4 385.259 195 385.259 211.8C385.259 213.4 385.159 215.2 384.959 217.2C384.959 219.2 384.859 221.1 384.659 222.9H251.159V198H364.859L350.159 205.8C350.359 196.6 348.459 188.5 344.459 181.5C340.459 174.5 334.959 169 327.959 165C321.159 161 313.259 159 304.259 159C295.059 159 286.959 161 279.959 165C273.159 169 267.759 174.6 263.759 181.8C259.959 188.8 258.059 197.1 258.059 206.7V212.7C258.059 222.3 260.259 230.8 264.659 238.2C269.059 245.6 275.259 251.3 283.259 255.3C291.259 259.3 300.459 261.3 310.859 261.3C319.859 261.3 327.959 259.9 335.159 257.1C342.359 254.3 348.759 249.9 354.359 243.9L374.459 267C367.259 275.4 358.159 281.9 347.159 286.5C336.359 290.9 323.959 293.1 309.959 293.1ZM515.074 293.1C502.074 293.1 490.174 290.1 479.374 284.1C468.774 278.1 460.274 269.1 453.874 257.1C447.674 244.9 444.574 229.5 444.574 210.9C444.574 192.1 447.574 176.7 453.574 164.7C459.774 152.7 468.174 143.8 478.774 138C489.374 132 501.474 129 515.074 129C530.874 129 544.774 132.4 556.774 139.2C568.974 146 578.574 155.5 585.574 167.7C592.774 179.9 596.374 194.3 596.374 210.9C596.374 227.5 592.774 242 585.574 254.4C578.574 266.6 568.974 276.1 556.774 282.9C544.774 289.7 530.874 293.1 515.074 293.1ZM426.274 349.2V130.8H461.974V168.6L460.774 211.2L463.774 253.8V349.2H426.274ZM510.874 261C519.874 261 527.874 259 534.874 255C542.074 251 547.774 245.2 551.974 237.6C556.174 230 558.274 221.1 558.274 210.9C558.274 200.5 556.174 191.6 551.974 184.2C547.774 176.6 542.074 170.8 534.874 166.8C527.874 162.8 519.874 160.8 510.874 160.8C501.874 160.8 493.774 162.8 486.574 166.8C479.374 170.8 473.674 176.6 469.474 184.2C465.274 191.6 463.174 200.5 463.174 210.9C463.174 221.1 465.274 230 469.474 237.6C473.674 245.2 479.374 251 486.574 255C493.774 259 501.874 261 510.874 261ZM633.696 291V130.8H756.696V162.6H662.496L671.196 154.2V291H633.696ZM851.658 293.1C833.858 293.1 818.258 289.6 804.858 282.6C791.658 275.4 781.358 265.6 773.958 253.2C766.758 240.8 763.158 226.7 763.158 210.9C763.158 194.9 766.658 180.8 773.658 168.6C780.858 156.2 790.658 146.5 803.058 139.5C815.658 132.5 829.958 129 845.958 129C861.558 129 875.458 132.4 887.658 139.2C899.858 146 909.458 155.6 916.458 168C923.458 180.4 926.958 195 926.958 211.8C926.958 213.4 926.858 215.2 926.658 217.2C926.658 219.2 926.558 221.1 926.358 222.9H792.858V198H906.558L891.858 205.8C892.058 196.6 890.158 188.5 886.158 181.5C882.158 174.5 876.658 169 869.658 165C862.858 161 854.958 159 845.958 159C836.758 159 828.658 161 821.658 165C814.858 169 809.458 174.6 805.458 181.8C801.658 188.8 799.758 197.1 799.758 206.7V212.7C799.758 222.3 801.958 230.8 806.358 238.2C810.758 245.6 816.958 251.3 824.958 255.3C832.958 259.3 842.158 261.3 852.558 261.3C861.558 261.3 869.658 259.9 876.858 257.1C884.058 254.3 890.458 249.9 896.058 243.9L916.158 267C908.958 275.4 899.858 281.9 888.858 286.5C878.058 290.9 865.658 293.1 851.658 293.1ZM967.973 291V130.8H1005.47V236.4L1093.97 130.8H1128.17V291H1090.67V185.4L1002.47 291H967.973ZM1045.67 111.9C1029.67 111.9 1017.37 108.2 1008.77 100.8C1000.17 93.2 995.773 82.2 995.573 67.8H1020.47C1020.67 75 1022.87 80.7 1027.07 84.9C1031.47 89.1 1037.57 91.2 1045.37 91.2C1052.97 91.2 1058.97 89.1 1063.37 84.9C1067.97 80.7 1070.37 75 1070.57 67.8H1096.07C1095.87 82.2 1091.37 93.2 1082.57 100.8C1073.97 108.2 1061.67 111.9 1045.67 111.9Z"/>
</mask>
<path d="M81.3 286.2L79.8239 289.918L79.8566 289.931L79.8896 289.943L81.3 286.2ZM45.6 263.7L42.8003 266.557L42.8291 266.585L42.8585 266.613L45.6 263.7ZM22.2 229.2L18.5177 230.762L22.2 229.2ZM22.2 142.8L18.5177 141.238L22.2 142.8ZM45.9 108.6L48.6415 111.513L48.6565 111.499L48.6713 111.484L45.9 108.6ZM81.6 86.1L83.0286 89.8362L83.0524 89.8271L83.0761 89.8177L81.6 86.1ZM173.4 87L171.843 90.6846L171.865 90.6939L171.887 90.703L173.4 87ZM209.4 113.1L212.14 116.014L214.903 113.416L212.456 110.519L209.4 113.1ZM184.2 136.8L181.266 139.519L184.005 142.474L186.94 139.714L184.2 136.8ZM158.7 118.5L157.068 122.152L157.101 122.167L157.134 122.181L158.7 118.5ZM97.8 117.6L96.3424 113.875L96.3284 113.881L96.3144 113.886L97.8 117.6ZM74.1 132.9L71.3141 130.03L71.2927 130.05L71.2716 130.072L74.1 132.9ZM58.5 156.3L54.815 154.744L54.8002 154.779L54.7861 154.814L58.5 156.3ZM58.5 215.7L54.7861 217.186L54.8002 217.221L54.815 217.256L58.5 215.7ZM74.1 239.1L71.2716 241.928L71.2927 241.95L71.3141 241.97L74.1 239.1ZM97.8 254.4L96.3144 258.114L96.3284 258.119L96.3424 258.125L97.8 254.4ZM158.7 253.8L160.266 257.481L160.299 257.467L160.332 257.452L158.7 253.8ZM184.2 234.9L186.959 232.003L183.987 229.173L181.234 232.216L184.2 234.9ZM209.4 258.9L212.433 261.508L214.911 258.625L212.159 256.003L209.4 258.9ZM173.4 285L171.843 281.315V281.315L173.4 285ZM126 290C110.441 290 96.0227 287.473 82.7104 282.457L79.8896 289.943C94.1773 295.327 109.559 298 126 298V290ZM82.7761 282.482C69.6236 277.26 58.1579 270.026 48.3415 260.787L42.8585 266.613C53.4421 276.574 65.7764 284.34 79.8239 289.918L82.7761 282.482ZM48.3997 260.843C38.7856 251.421 31.2814 240.364 25.8823 227.638L18.5177 230.762C24.3186 244.436 32.4144 256.379 42.8003 266.557L48.3997 260.843ZM25.8823 227.638C20.5098 214.974 17.8 201.111 17.8 186H9.8C9.8 202.089 12.6902 217.026 18.5177 230.762L25.8823 227.638ZM17.8 186C17.8 170.889 20.5098 157.026 25.8823 144.362L18.5177 141.238C12.6902 154.974 9.8 169.911 9.8 186H17.8ZM25.8823 144.362C31.271 131.66 38.855 120.724 48.6415 111.513L43.1585 105.687C32.545 115.676 24.329 127.54 18.5177 141.238L25.8823 144.362ZM48.6713 111.484C58.4738 102.066 69.9136 94.8507 83.0286 89.8362L80.1715 82.3638C66.0864 87.7493 53.7262 95.5337 43.1287 105.716L48.6713 111.484ZM83.0761 89.8177C96.1585 84.6232 110.551 82 126.3 82V74C109.649 74 94.2415 76.7768 80.1239 82.3823L83.0761 89.8177ZM126.3 82C143.027 82 158.19 84.9156 171.843 90.6846L174.957 83.3154C160.21 77.0844 143.973 74 126.3 74V82ZM171.887 90.703C185.497 96.2616 196.965 104.579 206.344 115.681L212.456 110.519C202.235 98.4206 189.704 89.3384 174.913 83.297L171.887 90.703ZM206.66 110.186L181.46 133.886L186.94 139.714L212.14 116.014L206.66 110.186ZM187.134 134.081C179.187 125.507 170.232 119.06 160.266 114.819L157.134 122.181C165.968 125.94 174.013 131.693 181.266 139.519L187.134 134.081ZM160.332 114.848C150.384 110.403 139.623 108.2 128.1 108.2V116.2C138.577 116.2 148.216 118.197 157.068 122.152L160.332 114.848ZM128.1 108.2C116.658 108.2 106.057 110.074 96.3424 113.875L99.2576 121.325C107.943 117.926 117.542 116.2 128.1 116.2V108.2ZM96.3144 113.886C86.8415 117.675 78.4971 123.058 71.3141 130.03L76.8859 135.77C83.3029 129.542 90.7585 124.725 99.2856 121.314L96.3144 113.886ZM71.2716 130.072C64.2897 137.053 58.8062 145.291 54.815 154.744L62.185 157.856C65.7938 149.309 70.7103 141.947 76.9284 135.728L71.2716 130.072ZM54.7861 154.814C50.9767 164.338 49.1 174.749 49.1 186H57.1C57.1 175.651 58.8233 166.262 62.2139 157.786L54.7861 154.814ZM49.1 186C49.1 197.251 50.9767 207.662 54.7861 217.186L62.2139 214.214C58.8233 205.738 57.1 196.349 57.1 186H49.1ZM54.815 217.256C58.8062 226.709 64.2897 234.947 71.2716 241.928L76.9284 236.272C70.7103 230.053 65.7938 222.691 62.185 214.144L54.815 217.256ZM71.3141 241.97C78.4971 248.942 86.8415 254.325 96.3144 258.114L99.2856 250.686C90.7585 247.275 83.3029 242.458 76.8859 236.23L71.3141 241.97ZM96.3424 258.125C106.057 261.926 116.658 263.8 128.1 263.8V255.8C117.542 255.8 107.943 254.074 99.2576 250.675L96.3424 258.125ZM128.1 263.8C139.596 263.8 150.334 261.707 160.266 257.481L157.134 250.119C148.266 253.893 138.604 255.8 128.1 255.8V263.8ZM160.332 257.452C170.288 253.004 179.231 246.354 187.166 237.584L181.234 232.216C173.969 240.246 165.912 246.196 157.068 250.148L160.332 257.452ZM181.441 237.797L206.641 261.797L212.159 256.003L186.959 232.003L181.441 237.797ZM206.367 256.292C196.98 267.212 185.489 275.549 171.843 281.315L174.957 288.685C189.711 282.451 202.22 273.388 212.433 261.508L206.367 256.292ZM171.843 281.315C158.195 287.082 142.934 290 126 290V298C143.866 298 160.205 294.918 174.957 288.685L171.843 281.315ZM263.159 282.6L261.243 286.112L261.275 286.129L261.307 286.145L263.159 282.6ZM232.259 253.2L228.799 255.209L228.811 255.229L228.824 255.25L232.259 253.2ZM231.959 168.6L228.499 166.591L228.494 166.6L228.489 166.609L231.959 168.6ZM261.359 139.5L259.416 136.003L259.404 136.01L259.392 136.017L261.359 139.5ZM345.959 139.2L347.906 135.706L345.959 139.2ZM384.959 217.2L380.978 216.802L380.959 217V217.2H384.959ZM384.659 222.9V226.9H388.239L388.634 223.342L384.659 222.9ZM251.159 222.9H247.159V226.9H251.159V222.9ZM251.159 198V194H247.159V198H251.159ZM364.859 198L366.733 201.533L364.859 194V198ZM350.159 205.8L346.16 205.713L346.011 212.529L352.033 209.333L350.159 205.8ZM344.459 181.5L340.986 183.485L344.459 181.5ZM327.959 165L325.931 168.448L325.952 168.46L325.974 168.473L327.959 165ZM279.959 165L277.974 161.527L277.952 161.54L277.931 161.552L279.959 165ZM263.759 181.8L260.262 179.857L260.253 179.874L260.243 179.892L263.759 181.8ZM283.259 255.3L281.47 258.878L283.259 255.3ZM335.159 257.1L336.608 260.828L335.159 257.1ZM354.359 243.9L357.376 241.274L354.463 237.926L351.434 241.171L354.359 243.9ZM374.459 267L377.496 269.603L379.744 266.98L377.476 264.374L374.459 267ZM347.159 286.5L348.668 290.204L348.685 290.197L348.702 290.19L347.159 286.5ZM309.959 289.1C292.689 289.1 277.746 285.707 265.011 279.055L261.307 286.145C275.372 293.493 291.628 297.1 309.959 297.1V289.1ZM265.074 279.088C252.475 272.216 242.711 262.91 235.693 251.15L228.824 255.25C236.606 268.29 247.442 278.584 261.243 286.112L265.074 279.088ZM235.718 251.191C228.907 239.462 225.459 226.068 225.459 210.9H217.459C217.459 227.332 221.21 242.138 228.799 255.209L235.718 251.191ZM225.459 210.9C225.459 195.501 228.821 182.105 235.428 170.591L228.489 166.609C221.096 179.495 217.459 194.299 217.459 210.9H225.459ZM235.418 170.609C242.263 158.82 251.549 149.631 263.325 142.983L259.392 136.017C246.368 143.369 236.054 153.58 228.499 166.591L235.418 170.609ZM263.301 142.997C275.244 136.362 288.862 133 304.259 133V125C287.655 125 272.674 128.638 259.416 136.003L263.301 142.997ZM304.259 133C319.258 133 332.474 136.263 344.011 142.694L347.906 135.706C335.043 128.537 320.459 125 304.259 125V133ZM344.011 142.694C355.555 149.128 364.63 158.194 371.275 169.966L378.242 166.034C370.888 153.006 360.762 142.872 347.906 135.706L344.011 142.694ZM371.275 169.966C377.88 181.667 381.259 195.565 381.259 211.8H389.259C389.259 194.435 385.637 179.133 378.242 166.034L371.275 169.966ZM381.259 211.8C381.259 213.239 381.168 214.902 380.978 216.802L388.939 217.598C389.149 215.498 389.259 213.561 389.259 211.8H381.259ZM380.959 217.2C380.959 219.067 380.865 220.819 380.683 222.458L388.634 223.342C388.852 221.381 388.959 219.333 388.959 217.2H380.959ZM384.659 218.9H251.159V226.9H384.659V218.9ZM255.159 222.9V198H247.159V222.9H255.159ZM251.159 202H364.859V194H251.159V202ZM362.984 194.467L348.284 202.267L352.033 209.333L366.733 201.533L362.984 194.467ZM354.158 205.887C354.371 196.066 352.34 187.23 347.932 179.515L340.986 183.485C344.577 189.77 346.346 197.134 346.16 205.713L354.158 205.887ZM347.932 179.515C343.577 171.895 337.563 165.881 329.943 161.527L325.974 168.473C332.354 172.119 337.34 177.105 340.986 183.485L347.932 179.515ZM329.987 161.552C322.489 157.142 313.87 155 304.259 155V163C312.648 163 319.828 164.858 325.931 168.448L329.987 161.552ZM304.259 155C294.462 155 285.66 157.135 277.974 161.527L281.943 168.473C288.258 164.865 295.655 163 304.259 163V155ZM277.931 161.552C270.488 165.93 264.593 172.062 260.262 179.857L267.255 183.743C270.925 177.138 275.829 172.07 281.987 168.448L277.931 161.552ZM260.243 179.892C256.066 187.586 254.059 196.57 254.059 206.7H262.059C262.059 197.63 263.851 190.014 267.274 183.708L260.243 179.892ZM254.059 206.7V212.7H262.059V206.7H254.059ZM254.059 212.7C254.059 222.935 256.412 232.157 261.22 240.244L268.097 236.156C264.106 229.443 262.059 221.665 262.059 212.7H254.059ZM261.22 240.244C266.028 248.329 272.813 254.549 281.47 258.878L285.047 251.722C277.705 248.051 272.089 242.871 268.097 236.156L261.22 240.244ZM281.47 258.878C290.109 263.197 299.939 265.3 310.859 265.3V257.3C300.979 257.3 292.408 255.403 285.047 251.722L281.47 258.878ZM310.859 265.3C320.274 265.3 328.877 263.835 336.608 260.828L333.709 253.372C327.041 255.965 319.443 257.3 310.859 257.3V265.3ZM336.608 260.828C344.403 257.797 351.299 253.041 357.283 246.629L351.434 241.171C346.218 246.759 340.314 250.803 333.709 253.372L336.608 260.828ZM351.341 246.526L371.441 269.626L377.476 264.374L357.376 241.274L351.341 246.526ZM371.422 264.397C364.659 272.287 356.085 278.431 345.615 282.81L348.702 290.19C360.232 285.369 369.858 278.513 377.496 269.603L371.422 264.397ZM345.649 282.796C335.414 286.965 323.543 289.1 309.959 289.1V297.1C324.375 297.1 337.303 294.835 348.668 290.204L345.649 282.796ZM479.374 284.1L477.404 287.581L477.418 287.589L477.432 287.597L479.374 284.1ZM453.874 257.1L450.308 258.912L450.326 258.947L450.345 258.982L453.874 257.1ZM453.574 164.7L450.021 162.864L450.008 162.887L449.997 162.911L453.574 164.7ZM478.774 138L480.694 141.509L480.72 141.495L480.745 141.481L478.774 138ZM556.774 139.2L554.802 142.68L554.814 142.687L554.827 142.694L556.774 139.2ZM585.574 167.7L582.105 169.691L582.117 169.712L582.129 169.733L585.574 167.7ZM585.574 254.4L582.115 252.391L582.11 252.4L582.105 252.409L585.574 254.4ZM556.774 282.9L554.827 279.406L554.814 279.413L554.802 279.42L556.774 282.9ZM426.274 349.2H422.274V353.2H426.274V349.2ZM426.274 130.8V126.8H422.274V130.8H426.274ZM461.974 130.8H465.974V126.8H461.974V130.8ZM461.974 168.6L465.973 168.713L465.974 168.656V168.6H461.974ZM460.774 211.2L456.776 211.087L456.77 211.284L456.784 211.481L460.774 211.2ZM463.774 253.8H467.774V253.659L467.764 253.519L463.774 253.8ZM463.774 349.2V353.2H467.774V349.2H463.774ZM534.874 255L532.932 251.503L532.911 251.515L532.89 251.527L534.874 255ZM551.974 237.6L548.473 235.665L551.974 237.6ZM551.974 184.2L548.473 186.135L548.484 186.155L548.495 186.174L551.974 184.2ZM534.874 166.8L532.89 170.273L532.911 170.285L532.932 170.297L534.874 166.8ZM486.574 166.8L484.632 163.303L486.574 166.8ZM469.474 184.2L472.953 186.174L472.964 186.155L472.975 186.135L469.474 184.2ZM486.574 255L488.517 251.503L486.574 255ZM515.074 289.1C502.717 289.1 491.491 286.256 481.317 280.603L477.432 287.597C488.857 293.944 501.431 297.1 515.074 297.1V289.1ZM481.345 280.619C471.481 275.036 463.489 266.628 457.404 255.218L450.345 258.982C457.059 271.572 466.068 281.164 477.404 287.581L481.345 280.619ZM457.44 255.288C451.609 243.814 448.574 229.085 448.574 210.9H440.574C440.574 229.915 443.739 245.986 450.308 258.912L457.44 255.288ZM448.574 210.9C448.574 192.487 451.518 177.756 457.152 166.489L449.997 162.911C443.63 175.644 440.574 191.713 440.574 210.9H448.574ZM457.128 166.536C463.007 155.157 470.874 146.882 480.694 141.509L476.854 134.491C465.474 140.718 456.542 150.243 450.021 162.864L457.128 166.536ZM480.745 141.481C490.676 135.86 502.083 133 515.074 133V125C500.866 125 488.073 128.14 476.804 134.519L480.745 141.481ZM515.074 133C530.285 133 543.486 136.268 554.802 142.68L558.746 135.72C546.062 128.532 531.464 125 515.074 125V133ZM554.827 142.694C566.388 149.138 575.464 158.116 582.105 169.691L589.044 165.709C581.685 152.884 571.561 142.862 558.722 135.706L554.827 142.694ZM582.129 169.733C588.908 181.218 592.374 194.891 592.374 210.9H600.374C600.374 193.709 596.641 178.582 589.019 165.667L582.129 169.733ZM592.374 210.9C592.374 226.907 588.908 240.692 582.115 252.391L589.033 256.409C596.64 243.308 600.374 228.093 600.374 210.9H592.374ZM582.105 252.409C575.464 263.984 566.388 272.962 554.827 279.406L558.722 286.394C571.561 279.238 581.685 269.216 589.044 256.391L582.105 252.409ZM554.802 279.42C543.486 285.832 530.285 289.1 515.074 289.1V297.1C531.464 297.1 546.062 293.568 558.746 286.38L554.802 279.42ZM430.274 349.2V130.8H422.274V349.2H430.274ZM426.274 134.8H461.974V126.8H426.274V134.8ZM457.974 130.8V168.6H465.974V130.8H457.974ZM457.976 168.487L456.776 211.087L464.773 211.313L465.973 168.713L457.976 168.487ZM456.784 211.481L459.784 254.081L467.764 253.519L464.764 210.919L456.784 211.481ZM459.774 253.8V349.2H467.774V253.8H459.774ZM463.774 345.2H426.274V353.2H463.774V345.2ZM510.874 265C520.488 265 529.186 262.857 536.859 258.473L532.89 251.527C526.562 255.143 519.261 257 510.874 257V265ZM536.817 258.497C544.709 254.112 550.933 247.754 555.475 239.535L548.473 235.665C544.615 242.646 539.44 247.888 532.932 251.503L536.817 258.497ZM555.475 239.535C560.055 231.247 562.274 221.658 562.274 210.9H554.274C554.274 220.542 552.293 228.753 548.473 235.665L555.475 239.535ZM562.274 210.9C562.274 199.961 560.063 190.348 555.453 182.226L548.495 186.174C552.286 192.852 554.274 201.039 554.274 210.9H562.274ZM555.475 182.265C550.933 174.046 544.709 167.688 536.817 163.303L532.932 170.297C539.44 173.912 544.615 179.154 548.473 186.135L555.475 182.265ZM536.859 163.327C529.186 158.943 520.488 156.8 510.874 156.8V164.8C519.261 164.8 526.562 166.657 532.89 170.273L536.859 163.327ZM510.874 156.8C501.259 156.8 492.48 158.943 484.632 163.303L488.517 170.297C495.069 166.657 502.489 164.8 510.874 164.8V156.8ZM484.632 163.303C476.74 167.688 470.515 174.046 465.973 182.265L472.975 186.135C476.833 179.154 482.009 173.912 488.517 170.297L484.632 163.303ZM465.995 182.226C461.386 190.348 459.174 199.961 459.174 210.9H467.174C467.174 201.039 469.163 192.852 472.953 186.174L465.995 182.226ZM459.174 210.9C459.174 221.658 461.393 231.247 465.973 239.535L472.975 235.665C469.155 228.753 467.174 220.542 467.174 210.9H459.174ZM465.973 239.535C470.515 247.754 476.74 254.112 484.632 258.497L488.517 251.503C482.009 247.888 476.833 242.646 472.975 235.665L465.973 239.535ZM484.632 258.497C492.48 262.857 501.259 265 510.874 265V257C502.489 257 495.069 255.143 488.517 251.503L484.632 258.497ZM633.696 291H629.696V295H633.696V291ZM633.696 130.8V126.8H629.696V130.8H633.696ZM756.696 130.8H760.696V126.8H756.696V130.8ZM756.696 162.6V166.6H760.696V162.6H756.696ZM662.496 162.6L659.718 159.722L652.594 166.6H662.496V162.6ZM671.196 154.2H675.196V144.778L668.418 151.322L671.196 154.2ZM671.196 291V295H675.196V291H671.196ZM637.696 291V130.8H629.696V291H637.696ZM633.696 134.8H756.696V126.8H633.696V134.8ZM752.696 130.8V162.6H760.696V130.8H752.696ZM756.696 158.6H662.496V166.6H756.696V158.6ZM665.274 165.478L673.974 157.078L668.418 151.322L659.718 159.722L665.274 165.478ZM667.196 154.2V291H675.196V154.2H667.196ZM671.196 287H633.696V295H671.196V287ZM804.858 282.6L802.942 286.112L802.974 286.129L803.006 286.145L804.858 282.6ZM773.958 253.2L770.499 255.209L770.511 255.229L770.523 255.25L773.958 253.2ZM773.658 168.6L770.199 166.591L770.193 166.6L770.188 166.609L773.658 168.6ZM803.058 139.5L801.115 136.003L801.103 136.01L801.091 136.017L803.058 139.5ZM887.658 139.2L889.605 135.706L887.658 139.2ZM926.658 217.2L922.678 216.802L922.658 217V217.2H926.658ZM926.358 222.9V226.9H929.938L930.333 223.342L926.358 222.9ZM792.858 222.9H788.858V226.9H792.858V222.9ZM792.858 198V194H788.858V198H792.858ZM906.558 198L908.433 201.533L906.558 194V198ZM891.858 205.8L887.859 205.713L887.711 212.529L893.733 209.333L891.858 205.8ZM886.158 181.5L882.685 183.485L886.158 181.5ZM869.658 165L867.63 168.448L867.651 168.46L867.673 168.473L869.658 165ZM821.658 165L819.673 161.527L819.651 161.54L819.63 161.552L821.658 165ZM805.458 181.8L801.961 179.857L801.952 179.874L801.942 179.892L805.458 181.8ZM824.958 255.3L823.169 258.878L824.958 255.3ZM876.858 257.1L878.308 260.828L876.858 257.1ZM896.058 243.9L899.075 241.274L896.162 237.926L893.134 241.171L896.058 243.9ZM916.158 267L919.195 269.603L921.443 266.98L919.175 264.374L916.158 267ZM888.858 286.5L890.367 290.204L890.384 290.197L890.401 290.19L888.858 286.5ZM851.658 289.1C834.389 289.1 819.445 285.707 806.71 279.055L803.006 286.145C817.071 293.493 833.327 297.1 851.658 297.1V289.1ZM806.773 279.088C794.174 272.216 784.411 262.91 777.393 251.15L770.523 255.25C778.305 268.29 789.141 278.584 802.942 286.112L806.773 279.088ZM777.417 251.191C770.607 239.462 767.158 226.068 767.158 210.9H759.158C759.158 227.332 762.909 242.138 770.499 255.209L777.417 251.191ZM767.158 210.9C767.158 195.501 770.521 182.105 777.127 170.591L770.188 166.609C762.795 179.495 759.158 194.299 759.158 210.9H767.158ZM777.117 170.609C783.962 158.82 793.249 149.631 805.024 142.983L801.091 136.017C788.067 143.369 777.754 153.58 770.199 166.591L777.117 170.609ZM805 142.997C816.943 136.362 830.561 133 845.958 133V125C829.354 125 814.373 128.638 801.115 136.003L805 142.997ZM845.958 133C860.957 133 874.173 136.263 885.71 142.694L889.605 135.706C876.743 128.537 862.158 125 845.958 125V133ZM885.71 142.694C897.255 149.128 906.329 158.194 912.975 169.966L919.941 166.034C912.587 153.006 902.461 142.872 889.605 135.706L885.71 142.694ZM912.975 169.966C919.579 181.667 922.958 195.565 922.958 211.8H930.958C930.958 194.435 927.336 179.133 919.941 166.034L912.975 169.966ZM922.958 211.8C922.958 213.239 922.868 214.902 922.678 216.802L930.638 217.598C930.848 215.498 930.958 213.561 930.958 211.8H922.958ZM922.658 217.2C922.658 219.067 922.564 220.819 922.382 222.458L930.333 223.342C930.551 221.381 930.658 219.333 930.658 217.2H922.658ZM926.358 218.9H792.858V226.9H926.358V218.9ZM796.858 222.9V198H788.858V222.9H796.858ZM792.858 202H906.558V194H792.858V202ZM904.683 194.467L889.983 202.267L893.733 209.333L908.433 201.533L904.683 194.467ZM895.857 205.887C896.07 196.066 894.039 187.23 889.631 179.515L882.685 183.485C886.276 189.77 888.045 197.134 887.859 205.713L895.857 205.887ZM889.631 179.515C885.276 171.895 879.263 165.881 871.642 161.527L867.673 168.473C874.053 172.119 879.039 177.105 882.685 183.485L889.631 179.515ZM871.686 161.552C864.189 157.142 855.569 155 845.958 155V163C854.347 163 861.527 164.858 867.63 168.448L871.686 161.552ZM845.958 155C836.161 155 827.359 157.135 819.673 161.527L823.642 168.473C829.957 164.865 837.354 163 845.958 163V155ZM819.63 161.552C812.187 165.93 806.292 172.062 801.961 179.857L808.954 183.743C812.624 177.138 817.529 172.07 823.686 168.448L819.63 161.552ZM801.942 179.892C797.765 187.586 795.758 196.57 795.758 206.7H803.758C803.758 197.63 805.55 190.014 808.973 183.708L801.942 179.892ZM795.758 206.7V212.7H803.758V206.7H795.758ZM795.758 212.7C795.758 222.935 798.111 232.157 802.92 240.244L809.796 236.156C805.805 229.443 803.758 221.665 803.758 212.7H795.758ZM802.92 240.244C807.727 248.329 814.512 254.549 823.169 258.878L826.747 251.722C819.404 248.051 813.789 242.871 809.796 236.156L802.92 240.244ZM823.169 258.878C831.808 263.197 841.638 265.3 852.558 265.3V257.3C842.678 257.3 834.107 255.403 826.747 251.722L823.169 258.878ZM852.558 265.3C861.973 265.3 870.576 263.835 878.308 260.828L875.408 253.372C868.74 255.965 861.142 257.3 852.558 257.3V265.3ZM878.308 260.828C886.103 257.797 892.998 253.041 898.982 246.629L893.134 241.171C887.918 246.759 882.013 250.803 875.408 253.372L878.308 260.828ZM893.04 246.526L913.14 269.626L919.175 264.374L899.075 241.274L893.04 246.526ZM913.121 264.397C906.358 272.287 897.784 278.431 887.315 282.81L890.401 290.19C901.931 285.369 911.557 278.513 919.195 269.603L913.121 264.397ZM887.349 282.796C877.114 286.965 865.242 289.1 851.658 289.1V297.1C866.074 297.1 879.002 294.835 890.367 290.204L887.349 282.796ZM967.973 291H963.973V295H967.973V291ZM967.973 130.8V126.8H963.973V130.8H967.973ZM1005.47 130.8H1009.47V126.8H1005.47V130.8ZM1005.47 236.4H1001.47V247.4L1008.54 238.969L1005.47 236.4ZM1093.97 130.8V126.8H1092.11L1090.91 128.231L1093.97 130.8ZM1128.17 130.8H1132.17V126.8H1128.17V130.8ZM1128.17 291V295H1132.17V291H1128.17ZM1090.67 291H1086.67V295H1090.67V291ZM1090.67 185.4H1094.67V174.371L1087.6 182.836L1090.67 185.4ZM1002.47 291V295H1004.34L1005.54 293.564L1002.47 291ZM1008.77 100.8L1006.12 103.797L1006.14 103.815L1006.16 103.832L1008.77 100.8ZM995.573 67.8V63.8H991.518L991.574 67.8555L995.573 67.8ZM1020.47 67.8L1024.47 67.6889L1024.36 63.8H1020.47V67.8ZM1027.07 84.9L1024.24 87.7284L1024.28 87.7613L1024.31 87.7934L1027.07 84.9ZM1063.37 84.9L1060.68 81.946L1060.64 81.9759L1060.61 82.0066L1063.37 84.9ZM1070.57 67.8V63.8H1066.68L1066.57 67.6889L1070.57 67.8ZM1096.07 67.8L1100.07 67.8555L1100.13 63.8H1096.07V67.8ZM1082.57 100.8L1085.18 103.832L1085.19 103.827L1082.57 100.8ZM971.973 291V130.8H963.973V291H971.973ZM967.973 134.8H1005.47V126.8H967.973V134.8ZM1001.47 130.8V236.4H1009.47V130.8H1001.47ZM1008.54 238.969L1097.04 133.369L1090.91 128.231L1002.41 233.831L1008.54 238.969ZM1093.97 134.8H1128.17V126.8H1093.97V134.8ZM1124.17 130.8V291H1132.17V130.8H1124.17ZM1128.17 287H1090.67V295H1128.17V287ZM1094.67 291V185.4H1086.67V291H1094.67ZM1087.6 182.836L999.403 288.436L1005.54 293.564L1093.74 187.964L1087.6 182.836ZM1002.47 287H967.973V295H1002.47V287ZM1045.67 107.9C1030.24 107.9 1019.01 104.329 1011.38 97.768L1006.16 103.832C1015.74 112.071 1029.1 115.9 1045.67 115.9V107.9ZM1011.42 97.8027C1003.87 91.1311 999.762 81.325 999.573 67.7444L991.574 67.8555C991.785 83.075 996.474 95.2689 1006.12 103.797L1011.42 97.8027ZM995.573 71.8H1020.47V63.8H995.573V71.8ZM1016.47 67.9111C1016.7 75.9032 1019.17 82.6578 1024.24 87.7284L1029.9 82.0716C1026.57 78.7422 1024.65 74.0968 1024.47 67.6889L1016.47 67.9111ZM1024.31 87.7934C1029.65 92.8879 1036.85 95.2 1045.37 95.2V87.2C1038.3 87.2 1033.3 85.3121 1029.84 82.0066L1024.31 87.7934ZM1045.37 95.2C1053.73 95.2 1060.82 92.87 1066.14 87.7934L1060.61 82.0066C1057.13 85.33 1052.21 87.2 1045.37 87.2V95.2ZM1066.07 87.8539C1071.6 82.8063 1074.35 76.0113 1074.57 67.9111L1066.57 67.6889C1066.4 73.9887 1064.35 78.5937 1060.68 81.946L1066.07 87.8539ZM1070.57 71.8H1096.07V63.8H1070.57V71.8ZM1092.07 67.7444C1091.89 81.2959 1087.69 91.0929 1079.96 97.7727L1085.19 103.827C1095.05 95.3071 1099.86 83.104 1100.07 67.8555L1092.07 67.7444ZM1079.96 97.768C1072.34 104.329 1061.1 107.9 1045.67 107.9V115.9C1062.24 115.9 1075.61 112.071 1085.18 103.832L1079.96 97.768Z" fill="white" mask="url(#path-3-outside-2_187_609)"/>
</svg>
