<svg width="1419" height="616" viewBox="0 0 1419 616" fill="none" xmlns="http://www.w3.org/2000/svg">
<mask id="path-1-outside-1_187_585" maskUnits="userSpaceOnUse" x="-4" y="327" width="1413" height="277" fill="black">
<rect fill="white" x="-4" y="327" width="1413" height="277"/>
<path d="M2.7 541L97.2 331H135.6L230.4 541H189.6L108.3 351.7H123.9L42.9 541H2.7ZM46.2 492.4L56.7 461.8H170.1L180.6 492.4H46.2ZM258.403 541V380.8H295.903V445.9H376.603V380.8H414.103V541H376.603V477.7H295.903V541H258.403ZM574.16 523.6V412.6H512.66L511.76 438.4C511.36 447.6 510.76 456.5 509.96 465.1C509.16 473.5 507.86 481.3 506.06 488.5C504.26 495.5 501.66 501.3 498.26 505.9C494.86 510.5 490.36 513.5 484.76 514.9L447.56 509.2C453.56 509.2 458.36 507.3 461.96 503.5C465.76 499.5 468.66 494.1 470.66 487.3C472.86 480.3 474.46 472.4 475.46 463.6C476.46 454.6 477.16 445.3 477.56 435.7L479.66 380.8H611.66V523.6H574.16ZM441.86 576.7V509.2H635.36V576.7H600.26V541H476.66V576.7H441.86ZM757.652 543.1C744.652 543.1 732.752 540.1 721.952 534.1C711.352 528.1 702.852 519.1 696.452 507.1C690.252 494.9 687.152 479.5 687.152 460.9C687.152 442.1 690.152 426.7 696.152 414.7C702.352 402.7 710.752 393.8 721.352 388C731.952 382 744.052 379 757.652 379C773.452 379 787.352 382.4 799.352 389.2C811.552 396 821.152 405.5 828.152 417.7C835.352 429.9 838.952 444.3 838.952 460.9C838.952 477.5 835.352 492 828.152 504.4C821.152 516.6 811.552 526.1 799.352 532.9C787.352 539.7 773.452 543.1 757.652 543.1ZM668.852 599.2V380.8H704.552V418.6L703.352 461.2L706.352 503.8V599.2H668.852ZM753.452 511C762.452 511 770.452 509 777.452 505C784.652 501 790.352 495.2 794.552 487.6C798.752 480 800.852 471.1 800.852 460.9C800.852 450.5 798.752 441.6 794.552 434.2C790.352 426.6 784.652 420.8 777.452 416.8C770.452 412.8 762.452 410.8 753.452 410.8C744.452 410.8 736.352 412.8 729.152 416.8C721.952 420.8 716.252 426.6 712.052 434.2C707.852 441.6 705.752 450.5 705.752 460.9C705.752 471.1 707.852 480 712.052 487.6C716.252 495.2 721.952 501 729.152 505C736.352 509 744.452 511 753.452 511ZM950.974 543.1C933.174 543.1 917.574 539.6 904.174 532.6C890.974 525.4 880.674 515.6 873.274 503.2C866.074 490.8 862.474 476.7 862.474 460.9C862.474 444.9 865.974 430.8 872.974 418.6C880.174 406.2 889.974 396.5 902.374 389.5C914.974 382.5 929.274 379 945.274 379C960.874 379 974.774 382.4 986.974 389.2C999.174 396 1008.77 405.6 1015.77 418C1022.77 430.4 1026.27 445 1026.27 461.8C1026.27 463.4 1026.17 465.2 1025.97 467.2C1025.97 469.2 1025.87 471.1 1025.67 472.9H892.174V448H1005.87L991.174 455.8C991.374 446.6 989.474 438.5 985.474 431.5C981.474 424.5 975.974 419 968.974 415C962.174 411 954.274 409 945.274 409C936.074 409 927.974 411 920.974 415C914.174 419 908.774 424.6 904.774 431.8C900.974 438.8 899.074 447.1 899.074 456.7V462.7C899.074 472.3 901.274 480.8 905.674 488.2C910.074 495.6 916.274 501.3 924.274 505.3C932.274 509.3 941.474 511.3 951.874 511.3C960.874 511.3 968.974 509.9 976.174 507.1C983.374 504.3 989.774 499.9 995.374 493.9L1015.47 517C1008.27 525.4 999.174 531.9 988.174 536.5C977.374 540.9 964.974 543.1 950.974 543.1ZM1141.99 543.1C1124.19 543.1 1108.59 539.6 1095.19 532.6C1081.99 525.4 1071.69 515.6 1064.29 503.2C1057.09 490.8 1053.49 476.7 1053.49 460.9C1053.49 444.9 1056.99 430.8 1063.99 418.6C1071.19 406.2 1080.99 396.5 1093.39 389.5C1105.99 382.5 1120.29 379 1136.29 379C1151.89 379 1165.79 382.4 1177.99 389.2C1190.19 396 1199.79 405.6 1206.79 418C1213.79 430.4 1217.29 445 1217.29 461.8C1217.29 463.4 1217.19 465.2 1216.99 467.2C1216.99 469.2 1216.89 471.1 1216.69 472.9H1083.19V448H1196.89L1182.19 455.8C1182.39 446.6 1180.49 438.5 1176.49 431.5C1172.49 424.5 1166.99 419 1159.99 415C1153.19 411 1145.29 409 1136.29 409C1127.09 409 1118.99 411 1111.99 415C1105.19 419 1099.79 424.6 1095.79 431.8C1091.99 438.8 1090.09 447.1 1090.09 456.7V462.7C1090.09 472.3 1092.29 480.8 1096.69 488.2C1101.09 495.6 1107.29 501.3 1115.29 505.3C1123.29 509.3 1132.49 511.3 1142.89 511.3C1151.89 511.3 1159.99 509.9 1167.19 507.1C1174.39 504.3 1180.79 499.9 1186.39 493.9L1206.49 517C1199.29 525.4 1190.19 531.9 1179.19 536.5C1168.39 540.9 1155.99 543.1 1141.99 543.1ZM1258.31 541V380.8H1336.61C1356.01 380.8 1371.21 384.4 1382.21 391.6C1393.41 398.8 1399.01 409 1399.01 422.2C1399.01 435.2 1393.81 445.4 1383.41 452.8C1373.01 460 1359.21 463.6 1342.01 463.6L1346.51 454.3C1365.91 454.3 1380.31 457.9 1389.71 465.1C1399.31 472.1 1404.11 482.4 1404.11 496C1404.11 510.2 1398.81 521.3 1388.21 529.3C1377.61 537.1 1361.51 541 1339.91 541H1258.31ZM1294.01 513.7H1336.91C1347.11 513.7 1354.81 512.1 1360.01 508.9C1365.21 505.5 1367.81 500.4 1367.81 493.6C1367.81 486.4 1365.41 481.1 1360.61 477.7C1355.81 474.3 1348.31 472.6 1338.11 472.6H1294.01V513.7ZM1294.01 447.7H1333.31C1342.91 447.7 1350.11 446 1354.91 442.6C1359.91 439 1362.41 434 1362.41 427.6C1362.41 421 1359.91 416.1 1354.91 412.9C1350.11 409.7 1342.91 408.1 1333.31 408.1H1294.01V447.7Z"/>
</mask>
<path d="M2.7 541L-0.947686 539.359L-3.48634 545H2.7V541ZM97.2 331V327H94.6137L93.5523 329.359L97.2 331ZM135.6 331L139.246 329.354L138.183 327H135.6V331ZM230.4 541V545H236.594L234.046 539.354L230.4 541ZM189.6 541L185.925 542.578L186.965 545H189.6V541ZM108.3 351.7V347.7H102.229L104.625 353.278L108.3 351.7ZM123.9 351.7L127.577 353.274L129.962 347.7H123.9V351.7ZM42.9 541V545H45.5392L46.5775 542.574L42.9 541ZM46.2 492.4L42.4165 491.102L40.5985 496.4H46.2V492.4ZM56.7 461.8V457.8H53.8436L52.9165 460.502L56.7 461.8ZM170.1 461.8L173.883 460.502L172.956 457.8H170.1V461.8ZM180.6 492.4V496.4H186.202L184.383 491.102L180.6 492.4ZM6.34769 542.641L100.848 332.641L93.5523 329.359L-0.947686 539.359L6.34769 542.641ZM97.2 335H135.6V327H97.2V335ZM131.954 332.646L226.754 542.646L234.046 539.354L139.246 329.354L131.954 332.646ZM230.4 537H189.6V545H230.4V537ZM193.275 539.422L111.975 350.121L104.625 353.278L185.925 542.578L193.275 539.422ZM108.3 355.7H123.9V347.7H108.3V355.7ZM120.223 350.126L39.2225 539.426L46.5775 542.574L127.577 353.274L120.223 350.126ZM42.9 537H2.7V545H42.9V537ZM49.9835 493.698L60.4835 463.098L52.9165 460.502L42.4165 491.102L49.9835 493.698ZM56.7 465.8H170.1V457.8H56.7V465.8ZM166.317 463.098L176.817 493.698L184.383 491.102L173.883 460.502L166.317 463.098ZM180.6 488.4H46.2V496.4H180.6V488.4ZM258.403 541H254.403V545H258.403V541ZM258.403 380.8V376.8H254.403V380.8H258.403ZM295.903 380.8H299.903V376.8H295.903V380.8ZM295.903 445.9H291.903V449.9H295.903V445.9ZM376.603 445.9V449.9H380.603V445.9H376.603ZM376.603 380.8V376.8H372.603V380.8H376.603ZM414.103 380.8H418.103V376.8H414.103V380.8ZM414.103 541V545H418.103V541H414.103ZM376.603 541H372.603V545H376.603V541ZM376.603 477.7H380.603V473.7H376.603V477.7ZM295.903 477.7V473.7H291.903V477.7H295.903ZM295.903 541V545H299.903V541H295.903ZM262.403 541V380.8H254.403V541H262.403ZM258.403 384.8H295.903V376.8H258.403V384.8ZM291.903 380.8V445.9H299.903V380.8H291.903ZM295.903 449.9H376.603V441.9H295.903V449.9ZM380.603 445.9V380.8H372.603V445.9H380.603ZM376.603 384.8H414.103V376.8H376.603V384.8ZM410.103 380.8V541H418.103V380.8H410.103ZM414.103 537H376.603V545H414.103V537ZM380.603 541V477.7H372.603V541H380.603ZM376.603 473.7H295.903V481.7H376.603V473.7ZM291.903 477.7V541H299.903V477.7H291.903ZM295.903 537H258.403V545H295.903V537ZM574.16 523.6H570.16V527.6H574.16V523.6ZM574.16 412.6H578.16V408.6H574.16V412.6ZM512.66 412.6V408.6H508.797L508.663 412.461L512.66 412.6ZM511.76 438.4L515.756 438.574L515.757 438.557L515.758 438.539L511.76 438.4ZM509.96 465.1L513.942 465.479L513.943 465.47L509.96 465.1ZM506.06 488.5L509.934 489.496L509.937 489.483L509.941 489.47L506.06 488.5ZM498.26 505.9L495.043 503.522L498.26 505.9ZM484.76 514.9L484.154 518.854L484.95 518.976L485.73 518.781L484.76 514.9ZM447.56 509.2V505.2L446.954 513.154L447.56 509.2ZM461.96 503.5L459.06 500.745L459.056 500.749L461.96 503.5ZM470.66 487.3L466.844 486.101L466.833 486.136L466.823 486.171L470.66 487.3ZM475.46 463.6L479.435 464.052L479.436 464.042L475.46 463.6ZM477.56 435.7L481.557 435.867L481.557 435.853L477.56 435.7ZM479.66 380.8V376.8H475.81L475.663 380.647L479.66 380.8ZM611.66 380.8H615.66V376.8H611.66V380.8ZM611.66 523.6V527.6H615.66V523.6H611.66ZM441.86 576.7H437.86V580.7H441.86V576.7ZM441.86 509.2V505.2H437.86V509.2H441.86ZM635.36 509.2H639.36V505.2H635.36V509.2ZM635.36 576.7V580.7H639.36V576.7H635.36ZM600.26 576.7H596.26V580.7H600.26V576.7ZM600.26 541H604.26V537H600.26V541ZM476.66 541V537H472.66V541H476.66ZM476.66 576.7V580.7H480.66V576.7H476.66ZM578.16 523.6V412.6H570.16V523.6H578.16ZM574.16 408.6H512.66V416.6H574.16V408.6ZM508.663 412.461L507.763 438.261L515.758 438.539L516.658 412.739L508.663 412.461ZM507.764 438.226C507.367 447.365 506.771 456.199 505.977 464.73L513.943 465.47C514.749 456.801 515.354 447.835 515.756 438.574L507.764 438.226ZM505.978 464.721C505.195 472.948 503.925 480.548 502.18 487.53L509.941 489.47C511.795 482.052 513.126 474.052 513.942 465.479L505.978 464.721ZM502.186 487.504C500.482 494.132 498.069 499.43 495.043 503.522L501.477 508.278C505.252 503.17 508.038 496.868 509.934 489.496L502.186 487.504ZM495.043 503.522C492.201 507.368 488.498 509.842 483.79 511.019L485.73 518.781C492.222 517.158 497.52 513.631 501.477 508.278L495.043 503.522ZM485.366 510.946L448.166 505.246L446.954 513.154L484.154 518.854L485.366 510.946ZM447.56 513.2C454.483 513.2 460.396 510.968 464.864 506.251L459.056 500.749C456.325 503.632 452.638 505.2 447.56 505.2V513.2ZM464.86 506.255C469.204 501.683 472.368 495.669 474.498 488.429L466.823 486.171C464.952 492.531 462.317 497.317 459.06 500.745L464.86 506.255ZM474.476 488.499C476.766 481.212 478.411 473.055 479.435 464.052L471.486 463.148C470.509 471.745 468.954 479.388 466.844 486.101L474.476 488.499ZM479.436 464.042C480.446 454.945 481.153 445.553 481.557 435.867L473.564 435.533C473.167 445.047 472.474 454.255 471.485 463.158L479.436 464.042ZM481.557 435.853L483.657 380.953L475.663 380.647L473.563 435.547L481.557 435.853ZM479.66 384.8H611.66V376.8H479.66V384.8ZM607.66 380.8V523.6H615.66V380.8H607.66ZM611.66 519.6H574.16V527.6H611.66V519.6ZM445.86 576.7V509.2H437.86V576.7H445.86ZM441.86 513.2H635.36V505.2H441.86V513.2ZM631.36 509.2V576.7H639.36V509.2H631.36ZM635.36 572.7H600.26V580.7H635.36V572.7ZM604.26 576.7V541H596.26V576.7H604.26ZM600.26 537H476.66V545H600.26V537ZM472.66 541V576.7H480.66V541H472.66ZM476.66 572.7H441.86V580.7H476.66V572.7ZM721.952 534.1L719.982 537.581L719.996 537.589L720.01 537.597L721.952 534.1ZM696.452 507.1L692.886 508.912L692.904 508.947L692.923 508.982L696.452 507.1ZM696.152 414.7L692.599 412.864L692.586 412.887L692.575 412.911L696.152 414.7ZM721.352 388L723.272 391.509L723.298 391.495L723.323 391.481L721.352 388ZM799.352 389.2L797.38 392.68L797.393 392.687L797.405 392.694L799.352 389.2ZM828.152 417.7L824.683 419.691L824.695 419.712L824.708 419.733L828.152 417.7ZM828.152 504.4L824.693 502.391L824.688 502.4L824.683 502.409L828.152 504.4ZM799.352 532.9L797.405 529.406L797.393 529.413L797.38 529.42L799.352 532.9ZM668.852 599.2H664.852V603.2H668.852V599.2ZM668.852 380.8V376.8H664.852V380.8H668.852ZM704.552 380.8H708.552V376.8H704.552V380.8ZM704.552 418.6L708.551 418.713L708.552 418.656V418.6H704.552ZM703.352 461.2L699.354 461.087L699.348 461.284L699.362 461.481L703.352 461.2ZM706.352 503.8H710.352V503.659L710.342 503.519L706.352 503.8ZM706.352 599.2V603.2H710.352V599.2H706.352ZM777.452 505L775.51 501.503L775.489 501.515L775.468 501.527L777.452 505ZM794.552 487.6L791.051 485.665L794.552 487.6ZM794.552 434.2L791.051 436.135L791.062 436.155L791.074 436.174L794.552 434.2ZM777.452 416.8L775.468 420.273L775.489 420.285L775.51 420.297L777.452 416.8ZM729.152 416.8L727.21 413.303L729.152 416.8ZM712.052 434.2L715.531 436.174L715.542 436.155L715.553 436.135L712.052 434.2ZM729.152 505L731.095 501.503L729.152 505ZM757.652 539.1C745.295 539.1 734.069 536.256 723.895 530.603L720.01 537.597C731.435 543.944 744.009 547.1 757.652 547.1V539.1ZM723.923 530.619C714.059 525.036 706.067 516.628 699.982 505.218L692.923 508.982C699.637 521.572 708.646 531.164 719.982 537.581L723.923 530.619ZM700.018 505.288C694.187 493.814 691.152 479.085 691.152 460.9H683.152C683.152 479.915 686.317 495.986 692.886 508.912L700.018 505.288ZM691.152 460.9C691.152 442.487 694.096 427.756 699.73 416.489L692.575 412.911C686.208 425.644 683.152 441.713 683.152 460.9H691.152ZM699.706 416.536C705.585 405.157 713.452 396.882 723.272 391.509L719.432 384.491C708.052 390.718 699.12 400.243 692.599 412.864L699.706 416.536ZM723.323 391.481C733.254 385.86 744.661 383 757.652 383V375C743.444 375 730.651 378.14 719.382 384.519L723.323 391.481ZM757.652 383C772.863 383 786.065 386.268 797.38 392.68L801.324 385.72C788.64 378.532 774.042 375 757.652 375V383ZM797.405 392.694C808.966 399.138 818.042 408.116 824.683 419.691L831.622 415.709C824.263 402.884 814.139 392.862 801.3 385.706L797.405 392.694ZM824.708 419.733C831.486 431.218 834.952 444.891 834.952 460.9H842.952C842.952 443.709 839.219 428.582 831.597 415.667L824.708 419.733ZM834.952 460.9C834.952 476.907 831.486 490.692 824.693 502.391L831.612 506.409C839.218 493.308 842.952 478.093 842.952 460.9H834.952ZM824.683 502.409C818.042 513.984 808.966 522.962 797.405 529.406L801.3 536.394C814.139 529.238 824.263 519.216 831.622 506.391L824.683 502.409ZM797.38 529.42C786.065 535.832 772.863 539.1 757.652 539.1V547.1C774.042 547.1 788.64 543.568 801.324 536.38L797.38 529.42ZM672.852 599.2V380.8H664.852V599.2H672.852ZM668.852 384.8H704.552V376.8H668.852V384.8ZM700.552 380.8V418.6H708.552V380.8H700.552ZM700.554 418.487L699.354 461.087L707.351 461.313L708.551 418.713L700.554 418.487ZM699.362 461.481L702.362 504.081L710.342 503.519L707.342 460.919L699.362 461.481ZM702.352 503.8V599.2H710.352V503.8H702.352ZM706.352 595.2H668.852V603.2H706.352V595.2ZM753.452 515C763.066 515 771.765 512.857 779.437 508.473L775.468 501.527C769.14 505.143 761.839 507 753.452 507V515ZM779.395 508.497C787.287 504.112 793.511 497.754 798.053 489.535L791.051 485.665C787.194 492.646 782.018 497.888 775.51 501.503L779.395 508.497ZM798.053 489.535C802.634 481.247 804.852 471.658 804.852 460.9H796.852C796.852 470.542 794.871 478.753 791.051 485.665L798.053 489.535ZM804.852 460.9C804.852 449.961 802.641 440.348 798.031 432.226L791.074 436.174C794.864 442.852 796.852 451.039 796.852 460.9H804.852ZM798.053 432.265C793.511 424.046 787.287 417.688 779.395 413.303L775.51 420.297C782.018 423.912 787.194 429.154 791.051 436.135L798.053 432.265ZM779.437 413.327C771.765 408.943 763.066 406.8 753.452 406.8V414.8C761.839 414.8 769.14 416.657 775.468 420.273L779.437 413.327ZM753.452 406.8C743.837 406.8 735.058 408.943 727.21 413.303L731.095 420.297C737.647 416.657 745.068 414.8 753.452 414.8V406.8ZM727.21 413.303C719.318 417.688 713.094 424.046 708.551 432.265L715.553 436.135C719.411 429.154 724.587 423.912 731.095 420.297L727.21 413.303ZM708.574 432.226C703.964 440.348 701.752 449.961 701.752 460.9H709.752C709.752 451.039 711.741 442.852 715.531 436.174L708.574 432.226ZM701.752 460.9C701.752 471.658 703.971 481.247 708.551 489.535L715.553 485.665C711.734 478.753 709.752 470.542 709.752 460.9H701.752ZM708.551 489.535C713.094 497.754 719.318 504.112 727.21 508.497L731.095 501.503C724.587 497.888 719.411 492.646 715.553 485.665L708.551 489.535ZM727.21 508.497C735.058 512.857 743.837 515 753.452 515V507C745.068 507 737.647 505.143 731.095 501.503L727.21 508.497ZM904.174 532.6L902.259 536.112L902.29 536.129L902.322 536.145L904.174 532.6ZM873.274 503.2L869.815 505.209L869.827 505.229L869.839 505.25L873.274 503.2ZM872.974 418.6L869.515 416.591L869.51 416.6L869.505 416.609L872.974 418.6ZM902.374 389.5L900.432 386.003L900.42 386.01L900.408 386.017L902.374 389.5ZM986.974 389.2L988.922 385.706L986.974 389.2ZM1025.97 467.2L1021.99 466.802L1021.97 467V467.2H1025.97ZM1025.67 472.9V476.9H1029.25L1029.65 473.342L1025.67 472.9ZM892.174 472.9H888.174V476.9H892.174V472.9ZM892.174 448V444H888.174V448H892.174ZM1005.87 448L1007.75 451.533L1005.87 444V448ZM991.174 455.8L987.175 455.713L987.027 462.529L993.049 459.333L991.174 455.8ZM985.474 431.5L982.001 433.485L985.474 431.5ZM968.974 415L966.946 418.448L966.968 418.46L966.99 418.473L968.974 415ZM920.974 415L918.99 411.527L918.968 411.54L918.946 411.552L920.974 415ZM904.774 431.8L901.278 429.857L901.268 429.874L901.259 429.892L904.774 431.8ZM924.274 505.3L922.485 508.878L924.274 505.3ZM976.174 507.1L977.624 510.828L976.174 507.1ZM995.374 493.9L998.392 491.274L995.478 487.926L992.45 491.171L995.374 493.9ZM1015.47 517L1018.51 519.603L1020.76 516.98L1018.49 514.374L1015.47 517ZM988.174 536.5L989.683 540.204L989.7 540.197L989.717 540.19L988.174 536.5ZM950.974 539.1C933.705 539.1 918.761 535.707 906.026 529.055L902.322 536.145C916.387 543.493 932.643 547.1 950.974 547.1V539.1ZM906.09 529.088C893.491 522.216 883.727 512.91 876.709 501.15L869.839 505.25C877.622 518.29 888.458 528.584 902.259 536.112L906.09 529.088ZM876.733 501.191C869.923 489.462 866.474 476.068 866.474 460.9H858.474C858.474 477.332 862.225 492.138 869.815 505.209L876.733 501.191ZM866.474 460.9C866.474 445.501 869.837 432.105 876.444 420.591L869.505 416.609C862.112 429.495 858.474 444.299 858.474 460.9H866.474ZM876.433 420.609C883.279 408.82 892.565 399.631 904.341 392.983L900.408 386.017C887.383 393.369 877.07 403.58 869.515 416.591L876.433 420.609ZM904.317 392.997C916.259 386.362 929.878 383 945.274 383V375C928.671 375 913.689 378.638 900.432 386.003L904.317 392.997ZM945.274 383C960.274 383 973.489 386.263 985.027 392.694L988.922 385.706C976.059 378.537 961.475 375 945.274 375V383ZM985.027 392.694C996.571 399.128 1005.65 408.194 1012.29 419.966L1019.26 416.034C1011.9 403.006 1001.78 392.872 988.922 385.706L985.027 392.694ZM1012.29 419.966C1018.9 431.667 1022.27 445.565 1022.27 461.8H1030.27C1030.27 444.435 1026.65 429.133 1019.26 416.034L1012.29 419.966ZM1022.27 461.8C1022.27 463.239 1022.18 464.902 1021.99 466.802L1029.95 467.598C1030.16 465.498 1030.27 463.561 1030.27 461.8H1022.27ZM1021.97 467.2C1021.97 469.067 1021.88 470.819 1021.7 472.458L1029.65 473.342C1029.87 471.381 1029.97 469.333 1029.97 467.2H1021.97ZM1025.67 468.9H892.174V476.9H1025.67V468.9ZM896.174 472.9V448H888.174V472.9H896.174ZM892.174 452H1005.87V444H892.174V452ZM1004 444.467L989.299 452.267L993.049 459.333L1007.75 451.533L1004 444.467ZM995.173 455.887C995.387 446.066 993.356 437.23 988.947 429.515L982.001 433.485C985.593 439.77 987.362 447.134 987.175 455.713L995.173 455.887ZM988.947 429.515C984.593 421.895 978.579 415.881 970.959 411.527L966.99 418.473C973.37 422.119 978.356 427.105 982.001 433.485L988.947 429.515ZM971.002 411.552C963.505 407.142 954.885 405 945.274 405V413C953.663 413 960.843 414.858 966.946 418.448L971.002 411.552ZM945.274 405C935.478 405 926.675 407.135 918.99 411.527L922.959 418.473C929.273 414.865 936.671 413 945.274 413V405ZM918.946 411.552C911.503 415.93 905.608 422.062 901.278 429.857L908.271 433.743C911.94 427.138 916.845 422.07 923.002 418.448L918.946 411.552ZM901.259 429.892C897.082 437.586 895.074 446.57 895.074 456.7H903.074C903.074 447.63 904.867 440.014 908.29 433.708L901.259 429.892ZM895.074 456.7V462.7H903.074V456.7H895.074ZM895.074 462.7C895.074 472.935 897.427 482.157 902.236 490.244L909.112 486.156C905.121 479.443 903.074 471.665 903.074 462.7H895.074ZM902.236 490.244C907.043 498.329 913.828 504.549 922.485 508.878L926.063 501.722C918.72 498.051 913.105 492.871 909.112 486.156L902.236 490.244ZM922.485 508.878C931.125 513.197 940.954 515.3 951.874 515.3V507.3C941.994 507.3 933.424 505.403 926.063 501.722L922.485 508.878ZM951.874 515.3C961.29 515.3 969.892 513.835 977.624 510.828L974.724 503.372C968.056 505.965 960.459 507.3 951.874 507.3V515.3ZM977.624 510.828C985.419 507.797 992.314 503.041 998.298 496.629L992.45 491.171C987.234 496.759 981.329 500.803 974.724 503.372L977.624 510.828ZM992.357 496.526L1012.46 519.626L1018.49 514.374L998.392 491.274L992.357 496.526ZM1012.44 514.397C1005.67 522.287 997.101 528.431 986.631 532.81L989.717 540.19C1001.25 535.369 1010.87 528.513 1018.51 519.603L1012.44 514.397ZM986.665 532.796C976.43 536.965 964.558 539.1 950.974 539.1V547.1C965.39 547.1 978.318 544.835 989.683 540.204L986.665 532.796ZM1095.19 532.6L1093.27 536.112L1093.31 536.129L1093.34 536.145L1095.19 532.6ZM1064.29 503.2L1060.83 505.209L1060.84 505.229L1060.85 505.25L1064.29 503.2ZM1063.99 418.6L1060.53 416.591L1060.53 416.6L1060.52 416.609L1063.99 418.6ZM1093.39 389.5L1091.45 386.003L1091.44 386.01L1091.42 386.017L1093.39 389.5ZM1177.99 389.2L1179.94 385.706L1177.99 389.2ZM1216.99 467.2L1213.01 466.802L1212.99 467V467.2H1216.99ZM1216.69 472.9V476.9H1220.27L1220.67 473.342L1216.69 472.9ZM1083.19 472.9H1079.19V476.9H1083.19V472.9ZM1083.19 448V444H1079.19V448H1083.19ZM1196.89 448L1198.76 451.533L1196.89 444V448ZM1182.19 455.8L1178.19 455.713L1178.04 462.529L1184.06 459.333L1182.19 455.8ZM1176.49 431.5L1173.02 433.485L1176.49 431.5ZM1159.99 415L1157.96 418.448L1157.98 418.46L1158.01 418.473L1159.99 415ZM1111.99 415L1110.01 411.527L1109.98 411.54L1109.96 411.552L1111.99 415ZM1095.79 431.8L1092.29 429.857L1092.28 429.874L1092.27 429.892L1095.79 431.8ZM1115.29 505.3L1113.5 508.878L1115.29 505.3ZM1167.19 507.1L1168.64 510.828L1167.19 507.1ZM1186.39 493.9L1189.41 491.274L1186.49 487.926L1183.47 491.171L1186.39 493.9ZM1206.49 517L1209.53 519.603L1211.78 516.98L1209.51 514.374L1206.49 517ZM1179.19 536.5L1180.7 540.204L1180.72 540.197L1180.73 540.19L1179.19 536.5ZM1141.99 539.1C1124.72 539.1 1109.78 535.707 1097.04 529.055L1093.34 536.145C1107.4 543.493 1123.66 547.1 1141.99 547.1V539.1ZM1097.11 529.088C1084.51 522.216 1074.74 512.91 1067.72 501.15L1060.85 505.25C1068.64 518.29 1079.47 528.584 1093.27 536.112L1097.11 529.088ZM1067.75 501.191C1060.94 489.462 1057.49 476.068 1057.49 460.9H1049.49C1049.49 477.332 1053.24 492.138 1060.83 505.209L1067.75 501.191ZM1057.49 460.9C1057.49 445.501 1060.85 432.105 1067.46 420.591L1060.52 416.609C1053.13 429.495 1049.49 444.299 1049.49 460.9H1057.49ZM1067.45 420.609C1074.29 408.82 1083.58 399.631 1095.36 392.983L1091.42 386.017C1078.4 393.369 1068.09 403.58 1060.53 416.591L1067.45 420.609ZM1095.33 392.997C1107.27 386.362 1120.89 383 1136.29 383V375C1119.69 375 1104.7 378.638 1091.45 386.003L1095.33 392.997ZM1136.29 383C1151.29 383 1164.51 386.263 1176.04 392.694L1179.94 385.706C1167.07 378.537 1152.49 375 1136.29 375V383ZM1176.04 392.694C1187.59 399.128 1196.66 408.194 1203.31 419.966L1210.27 416.034C1202.92 403.006 1192.79 392.872 1179.94 385.706L1176.04 392.694ZM1203.31 419.966C1209.91 431.667 1213.29 445.565 1213.29 461.8H1221.29C1221.29 444.435 1217.67 429.133 1210.27 416.034L1203.31 419.966ZM1213.29 461.8C1213.29 463.239 1213.2 464.902 1213.01 466.802L1220.97 467.598C1221.18 465.498 1221.29 463.561 1221.29 461.8H1213.29ZM1212.99 467.2C1212.99 469.067 1212.9 470.819 1212.71 472.458L1220.67 473.342C1220.88 471.381 1220.99 469.333 1220.99 467.2H1212.99ZM1216.69 468.9H1083.19V476.9H1216.69V468.9ZM1087.19 472.9V448H1079.19V472.9H1087.19ZM1083.19 452H1196.89V444H1083.19V452ZM1195.02 444.467L1180.31 452.267L1184.06 459.333L1198.76 451.533L1195.02 444.467ZM1186.19 455.887C1186.4 446.066 1184.37 437.23 1179.96 429.515L1173.02 433.485C1176.61 439.77 1178.38 447.134 1178.19 455.713L1186.19 455.887ZM1179.96 429.515C1175.61 421.895 1169.59 415.881 1161.97 411.527L1158.01 418.473C1164.39 422.119 1169.37 427.105 1173.02 433.485L1179.96 429.515ZM1162.02 411.552C1154.52 407.142 1145.9 405 1136.29 405V413C1144.68 413 1151.86 414.858 1157.96 418.448L1162.02 411.552ZM1136.29 405C1126.49 405 1117.69 407.135 1110.01 411.527L1113.97 418.473C1120.29 414.865 1127.69 413 1136.29 413V405ZM1109.96 411.552C1102.52 415.93 1096.62 422.062 1092.29 429.857L1099.29 433.743C1102.96 427.138 1107.86 422.07 1114.02 418.448L1109.96 411.552ZM1092.27 429.892C1088.1 437.586 1086.09 446.57 1086.09 456.7H1094.09C1094.09 447.63 1095.88 440.014 1099.31 433.708L1092.27 429.892ZM1086.09 456.7V462.7H1094.09V456.7H1086.09ZM1086.09 462.7C1086.09 472.935 1088.44 482.157 1093.25 490.244L1100.13 486.156C1096.14 479.443 1094.09 471.665 1094.09 462.7H1086.09ZM1093.25 490.244C1098.06 498.329 1104.84 504.549 1113.5 508.878L1117.08 501.722C1109.74 498.051 1104.12 492.871 1100.13 486.156L1093.25 490.244ZM1113.5 508.878C1122.14 513.197 1131.97 515.3 1142.89 515.3V507.3C1133.01 507.3 1124.44 505.403 1117.08 501.722L1113.5 508.878ZM1142.89 515.3C1152.31 515.3 1160.91 513.835 1168.64 510.828L1165.74 503.372C1159.07 505.965 1151.47 507.3 1142.89 507.3V515.3ZM1168.64 510.828C1176.43 507.797 1183.33 503.041 1189.31 496.629L1183.47 491.171C1178.25 496.759 1172.35 500.803 1165.74 503.372L1168.64 510.828ZM1183.37 496.526L1203.47 519.626L1209.51 514.374L1189.41 491.274L1183.37 496.526ZM1203.45 514.397C1196.69 522.287 1188.12 528.431 1177.65 532.81L1180.73 540.19C1192.26 535.369 1201.89 528.513 1209.53 519.603L1203.45 514.397ZM1177.68 532.796C1167.45 536.965 1155.57 539.1 1141.99 539.1V547.1C1156.41 547.1 1169.33 544.835 1180.7 540.204L1177.68 532.796ZM1258.31 541H1254.31V545H1258.31V541ZM1258.31 380.8V376.8H1254.31V380.8H1258.31ZM1382.21 391.6L1380.01 394.947L1380.03 394.956L1380.04 394.965L1382.21 391.6ZM1383.41 452.8L1385.68 456.089L1385.7 456.074L1385.72 456.059L1383.41 452.8ZM1342.01 463.6L1338.4 461.858L1335.63 467.6H1342.01V463.6ZM1346.51 454.3V450.3H1344L1342.9 452.558L1346.51 454.3ZM1389.71 465.1L1387.27 468.276L1387.31 468.304L1387.35 468.332L1389.71 465.1ZM1388.21 529.3L1390.58 532.522L1390.6 532.507L1390.62 532.493L1388.21 529.3ZM1294.01 513.7H1290.01V517.7H1294.01V513.7ZM1360.01 508.9L1362.1 512.307L1362.15 512.278L1362.19 512.248L1360.01 508.9ZM1360.61 477.7L1358.29 480.964L1360.61 477.7ZM1294.01 472.6V468.6H1290.01V472.6H1294.01ZM1294.01 447.7H1290.01V451.7H1294.01V447.7ZM1354.91 442.6L1357.22 445.864L1357.23 445.855L1357.24 445.846L1354.91 442.6ZM1354.91 412.9L1352.69 416.228L1352.72 416.249L1352.75 416.269L1354.91 412.9ZM1294.01 408.1V404.1H1290.01V408.1H1294.01ZM1262.31 541V380.8H1254.31V541H1262.31ZM1258.31 384.8H1336.61V376.8H1258.31V384.8ZM1336.61 384.8C1355.58 384.8 1369.91 388.331 1380.01 394.947L1384.4 388.253C1372.5 380.469 1356.43 376.8 1336.61 376.8V384.8ZM1380.04 394.965C1390.11 401.436 1395.01 410.375 1395.01 422.2H1403.01C1403.01 407.625 1396.7 396.164 1384.37 388.235L1380.04 394.965ZM1395.01 422.2C1395.01 433.934 1390.41 442.908 1381.09 449.541L1385.72 456.059C1397.2 447.892 1403.01 436.466 1403.01 422.2H1395.01ZM1381.13 449.511C1371.6 456.108 1358.68 459.6 1342.01 459.6V467.6C1359.73 467.6 1374.41 463.892 1385.68 456.089L1381.13 449.511ZM1345.61 465.342L1350.11 456.042L1342.9 452.558L1338.4 461.858L1345.61 465.342ZM1346.51 458.3C1365.54 458.3 1378.89 461.856 1387.27 468.276L1392.14 461.924C1381.72 453.944 1366.27 450.3 1346.51 450.3V458.3ZM1387.35 468.332C1395.76 474.462 1400.11 483.466 1400.11 496H1408.11C1408.11 481.334 1402.85 469.738 1392.06 461.868L1387.35 468.332ZM1400.11 496C1400.11 509.046 1395.32 518.922 1385.8 526.107L1390.62 532.493C1402.29 523.678 1408.11 511.354 1408.11 496H1400.11ZM1385.83 526.078C1376.24 533.14 1361.15 537 1339.91 537V545C1361.86 545 1378.97 541.06 1390.58 532.522L1385.83 526.078ZM1339.91 537H1258.31V545H1339.91V537ZM1294.01 517.7H1336.91V509.7H1294.01V517.7ZM1336.91 517.7C1347.4 517.7 1355.98 516.075 1362.1 512.307L1357.91 505.493C1353.63 508.125 1346.81 509.7 1336.91 509.7V517.7ZM1362.19 512.248C1368.65 508.03 1371.81 501.599 1371.81 493.6H1363.81C1363.81 499.201 1361.77 502.97 1357.82 505.552L1362.19 512.248ZM1371.81 493.6C1371.81 485.431 1369.02 478.757 1362.92 474.436L1358.29 480.964C1361.79 483.443 1363.81 487.369 1363.81 493.6H1371.81ZM1362.92 474.436C1357.1 470.319 1348.59 468.6 1338.11 468.6V476.6C1348.02 476.6 1354.51 478.281 1358.29 480.964L1362.92 474.436ZM1338.11 468.6H1294.01V476.6H1338.11V468.6ZM1290.01 472.6V513.7H1298.01V472.6H1290.01ZM1294.01 451.7H1333.31V443.7H1294.01V451.7ZM1333.31 451.7C1343.26 451.7 1351.44 449.96 1357.22 445.864L1352.59 439.336C1348.78 442.04 1342.55 443.7 1333.31 443.7V451.7ZM1357.24 445.846C1363.33 441.461 1366.41 435.228 1366.41 427.6H1358.41C1358.41 432.772 1356.48 436.539 1352.57 439.354L1357.24 445.846ZM1366.41 427.6C1366.41 419.817 1363.35 413.559 1357.06 409.531L1352.75 416.269C1356.46 418.641 1358.41 422.183 1358.41 427.6H1366.41ZM1357.12 409.572C1351.36 405.73 1343.22 404.1 1333.31 404.1V412.1C1342.59 412.1 1348.85 413.67 1352.69 416.228L1357.12 409.572ZM1333.31 404.1H1294.01V412.1H1333.31V404.1ZM1290.01 408.1V447.7H1298.01V408.1H1290.01Z" fill="white" mask="url(#path-1-outside-1_187_585)"/>
<mask id="path-3-outside-2_187_585" maskUnits="userSpaceOnUse" x="9" y="63" width="1124" height="291" fill="black">
<rect fill="white" x="9" y="63" width="1124" height="291"/>
<path d="M126 294C110 294 95.1 291.4 81.3 286.2C67.7 280.8 55.8 273.3 45.6 263.7C35.6 253.9 27.8 242.4 22.2 229.2C16.6 216 13.8 201.6 13.8 186C13.8 170.4 16.6 156 22.2 142.8C27.8 129.6 35.7 118.2 45.9 108.6C56.1 98.8 68 91.3 81.6 86.1C95.2 80.7 110.1 78 126.3 78C143.5 78 159.2 81 173.4 87C187.6 92.8 199.6 101.5 209.4 113.1L184.2 136.8C176.6 128.6 168.1 122.5 158.7 118.5C149.3 114.3 139.1 112.2 128.1 112.2C117.1 112.2 107 114 97.8 117.6C88.8 121.2 80.9 126.3 74.1 132.9C67.5 139.5 62.3 147.3 58.5 156.3C54.9 165.3 53.1 175.2 53.1 186C53.1 196.8 54.9 206.7 58.5 215.7C62.3 224.7 67.5 232.5 74.1 239.1C80.9 245.7 88.8 250.8 97.8 254.4C107 258 117.1 259.8 128.1 259.8C139.1 259.8 149.3 257.8 158.7 253.8C168.1 249.6 176.6 243.3 184.2 234.9L209.4 258.9C199.6 270.3 187.6 279 173.4 285C159.2 291 143.4 294 126 294ZM309.959 293.1C292.159 293.1 276.559 289.6 263.159 282.6C249.959 275.4 239.659 265.6 232.259 253.2C225.059 240.8 221.459 226.7 221.459 210.9C221.459 194.9 224.959 180.8 231.959 168.6C239.159 156.2 248.959 146.5 261.359 139.5C273.959 132.5 288.259 129 304.259 129C319.859 129 333.759 132.4 345.959 139.2C358.159 146 367.759 155.6 374.759 168C381.759 180.4 385.259 195 385.259 211.8C385.259 213.4 385.159 215.2 384.959 217.2C384.959 219.2 384.859 221.1 384.659 222.9H251.159V198H364.859L350.159 205.8C350.359 196.6 348.459 188.5 344.459 181.5C340.459 174.5 334.959 169 327.959 165C321.159 161 313.259 159 304.259 159C295.059 159 286.959 161 279.959 165C273.159 169 267.759 174.6 263.759 181.8C259.959 188.8 258.059 197.1 258.059 206.7V212.7C258.059 222.3 260.259 230.8 264.659 238.2C269.059 245.6 275.259 251.3 283.259 255.3C291.259 259.3 300.459 261.3 310.859 261.3C319.859 261.3 327.959 259.9 335.159 257.1C342.359 254.3 348.759 249.9 354.359 243.9L374.459 267C367.259 275.4 358.159 281.9 347.159 286.5C336.359 290.9 323.959 293.1 309.959 293.1ZM515.074 293.1C502.074 293.1 490.174 290.1 479.374 284.1C468.774 278.1 460.274 269.1 453.874 257.1C447.674 244.9 444.574 229.5 444.574 210.9C444.574 192.1 447.574 176.7 453.574 164.7C459.774 152.7 468.174 143.8 478.774 138C489.374 132 501.474 129 515.074 129C530.874 129 544.774 132.4 556.774 139.2C568.974 146 578.574 155.5 585.574 167.7C592.774 179.9 596.374 194.3 596.374 210.9C596.374 227.5 592.774 242 585.574 254.4C578.574 266.6 568.974 276.1 556.774 282.9C544.774 289.7 530.874 293.1 515.074 293.1ZM426.274 349.2V130.8H461.974V168.6L460.774 211.2L463.774 253.8V349.2H426.274ZM510.874 261C519.874 261 527.874 259 534.874 255C542.074 251 547.774 245.2 551.974 237.6C556.174 230 558.274 221.1 558.274 210.9C558.274 200.5 556.174 191.6 551.974 184.2C547.774 176.6 542.074 170.8 534.874 166.8C527.874 162.8 519.874 160.8 510.874 160.8C501.874 160.8 493.774 162.8 486.574 166.8C479.374 170.8 473.674 176.6 469.474 184.2C465.274 191.6 463.174 200.5 463.174 210.9C463.174 221.1 465.274 230 469.474 237.6C473.674 245.2 479.374 251 486.574 255C493.774 259 501.874 261 510.874 261ZM633.696 291V130.8H756.696V162.6H662.496L671.196 154.2V291H633.696ZM851.658 293.1C833.858 293.1 818.258 289.6 804.858 282.6C791.658 275.4 781.358 265.6 773.958 253.2C766.758 240.8 763.158 226.7 763.158 210.9C763.158 194.9 766.658 180.8 773.658 168.6C780.858 156.2 790.658 146.5 803.058 139.5C815.658 132.5 829.958 129 845.958 129C861.558 129 875.458 132.4 887.658 139.2C899.858 146 909.458 155.6 916.458 168C923.458 180.4 926.958 195 926.958 211.8C926.958 213.4 926.858 215.2 926.658 217.2C926.658 219.2 926.558 221.1 926.358 222.9H792.858V198H906.558L891.858 205.8C892.058 196.6 890.158 188.5 886.158 181.5C882.158 174.5 876.658 169 869.658 165C862.858 161 854.958 159 845.958 159C836.758 159 828.658 161 821.658 165C814.858 169 809.458 174.6 805.458 181.8C801.658 188.8 799.758 197.1 799.758 206.7V212.7C799.758 222.3 801.958 230.8 806.358 238.2C810.758 245.6 816.958 251.3 824.958 255.3C832.958 259.3 842.158 261.3 852.558 261.3C861.558 261.3 869.658 259.9 876.858 257.1C884.058 254.3 890.458 249.9 896.058 243.9L916.158 267C908.958 275.4 899.858 281.9 888.858 286.5C878.058 290.9 865.658 293.1 851.658 293.1ZM967.973 291V130.8H1005.47V236.4L1093.97 130.8H1128.17V291H1090.67V185.4L1002.47 291H967.973ZM1045.67 111.9C1029.67 111.9 1017.37 108.2 1008.77 100.8C1000.17 93.2 995.773 82.2 995.573 67.8H1020.47C1020.67 75 1022.87 80.7 1027.07 84.9C1031.47 89.1 1037.57 91.2 1045.37 91.2C1052.97 91.2 1058.97 89.1 1063.37 84.9C1067.97 80.7 1070.37 75 1070.57 67.8H1096.07C1095.87 82.2 1091.37 93.2 1082.57 100.8C1073.97 108.2 1061.67 111.9 1045.67 111.9Z"/>
</mask>
<path d="M81.3 286.2L79.8239 289.918L79.8566 289.931L79.8896 289.943L81.3 286.2ZM45.6 263.7L42.8003 266.557L42.8291 266.585L42.8585 266.613L45.6 263.7ZM22.2 229.2L18.5177 230.762L22.2 229.2ZM22.2 142.8L18.5177 141.238L22.2 142.8ZM45.9 108.6L48.6415 111.513L48.6565 111.499L48.6713 111.484L45.9 108.6ZM81.6 86.1L83.0286 89.8362L83.0524 89.8271L83.0761 89.8177L81.6 86.1ZM173.4 87L171.843 90.6846L171.865 90.6939L171.887 90.703L173.4 87ZM209.4 113.1L212.14 116.014L214.903 113.416L212.456 110.519L209.4 113.1ZM184.2 136.8L181.266 139.519L184.005 142.474L186.94 139.714L184.2 136.8ZM158.7 118.5L157.068 122.152L157.101 122.167L157.134 122.181L158.7 118.5ZM97.8 117.6L96.3424 113.875L96.3284 113.881L96.3144 113.886L97.8 117.6ZM74.1 132.9L71.3141 130.03L71.2927 130.05L71.2716 130.072L74.1 132.9ZM58.5 156.3L54.815 154.744L54.8002 154.779L54.7861 154.814L58.5 156.3ZM58.5 215.7L54.7861 217.186L54.8002 217.221L54.815 217.256L58.5 215.7ZM74.1 239.1L71.2716 241.928L71.2927 241.95L71.3141 241.97L74.1 239.1ZM97.8 254.4L96.3144 258.114L96.3284 258.119L96.3424 258.125L97.8 254.4ZM158.7 253.8L160.266 257.481L160.299 257.467L160.332 257.452L158.7 253.8ZM184.2 234.9L186.959 232.003L183.987 229.173L181.234 232.216L184.2 234.9ZM209.4 258.9L212.433 261.508L214.911 258.625L212.159 256.003L209.4 258.9ZM173.4 285L171.843 281.315V281.315L173.4 285ZM126 290C110.441 290 96.0227 287.473 82.7104 282.457L79.8896 289.943C94.1773 295.327 109.559 298 126 298V290ZM82.7761 282.482C69.6236 277.26 58.1579 270.026 48.3415 260.787L42.8585 266.613C53.4421 276.574 65.7764 284.34 79.8239 289.918L82.7761 282.482ZM48.3997 260.843C38.7856 251.421 31.2814 240.364 25.8823 227.638L18.5177 230.762C24.3186 244.436 32.4144 256.379 42.8003 266.557L48.3997 260.843ZM25.8823 227.638C20.5098 214.974 17.8 201.111 17.8 186H9.8C9.8 202.089 12.6902 217.026 18.5177 230.762L25.8823 227.638ZM17.8 186C17.8 170.889 20.5098 157.026 25.8823 144.362L18.5177 141.238C12.6902 154.974 9.8 169.911 9.8 186H17.8ZM25.8823 144.362C31.271 131.66 38.855 120.724 48.6415 111.513L43.1585 105.687C32.545 115.676 24.329 127.54 18.5177 141.238L25.8823 144.362ZM48.6713 111.484C58.4738 102.066 69.9136 94.8507 83.0286 89.8362L80.1715 82.3638C66.0864 87.7493 53.7262 95.5337 43.1287 105.716L48.6713 111.484ZM83.0761 89.8177C96.1585 84.6232 110.551 82 126.3 82V74C109.649 74 94.2415 76.7768 80.1239 82.3823L83.0761 89.8177ZM126.3 82C143.027 82 158.19 84.9156 171.843 90.6846L174.957 83.3154C160.21 77.0844 143.973 74 126.3 74V82ZM171.887 90.703C185.497 96.2616 196.965 104.579 206.344 115.681L212.456 110.519C202.235 98.4206 189.704 89.3384 174.913 83.297L171.887 90.703ZM206.66 110.186L181.46 133.886L186.94 139.714L212.14 116.014L206.66 110.186ZM187.134 134.081C179.187 125.507 170.232 119.06 160.266 114.819L157.134 122.181C165.968 125.94 174.013 131.693 181.266 139.519L187.134 134.081ZM160.332 114.848C150.384 110.403 139.623 108.2 128.1 108.2V116.2C138.577 116.2 148.216 118.197 157.068 122.152L160.332 114.848ZM128.1 108.2C116.658 108.2 106.057 110.074 96.3424 113.875L99.2576 121.325C107.943 117.926 117.542 116.2 128.1 116.2V108.2ZM96.3144 113.886C86.8415 117.675 78.4971 123.058 71.3141 130.03L76.8859 135.77C83.3029 129.542 90.7585 124.725 99.2856 121.314L96.3144 113.886ZM71.2716 130.072C64.2897 137.053 58.8062 145.291 54.815 154.744L62.185 157.856C65.7938 149.309 70.7103 141.947 76.9284 135.728L71.2716 130.072ZM54.7861 154.814C50.9767 164.338 49.1 174.749 49.1 186H57.1C57.1 175.651 58.8233 166.262 62.2139 157.786L54.7861 154.814ZM49.1 186C49.1 197.251 50.9767 207.662 54.7861 217.186L62.2139 214.214C58.8233 205.738 57.1 196.349 57.1 186H49.1ZM54.815 217.256C58.8062 226.709 64.2897 234.947 71.2716 241.928L76.9284 236.272C70.7103 230.053 65.7938 222.691 62.185 214.144L54.815 217.256ZM71.3141 241.97C78.4971 248.942 86.8415 254.325 96.3144 258.114L99.2856 250.686C90.7585 247.275 83.3029 242.458 76.8859 236.23L71.3141 241.97ZM96.3424 258.125C106.057 261.926 116.658 263.8 128.1 263.8V255.8C117.542 255.8 107.943 254.074 99.2576 250.675L96.3424 258.125ZM128.1 263.8C139.596 263.8 150.334 261.707 160.266 257.481L157.134 250.119C148.266 253.893 138.604 255.8 128.1 255.8V263.8ZM160.332 257.452C170.288 253.004 179.231 246.354 187.166 237.584L181.234 232.216C173.969 240.246 165.912 246.196 157.068 250.148L160.332 257.452ZM181.441 237.797L206.641 261.797L212.159 256.003L186.959 232.003L181.441 237.797ZM206.367 256.292C196.98 267.212 185.489 275.549 171.843 281.315L174.957 288.685C189.711 282.451 202.22 273.388 212.433 261.508L206.367 256.292ZM171.843 281.315C158.195 287.082 142.934 290 126 290V298C143.866 298 160.205 294.918 174.957 288.685L171.843 281.315ZM263.159 282.6L261.243 286.112L261.275 286.129L261.307 286.145L263.159 282.6ZM232.259 253.2L228.799 255.209L228.811 255.229L228.824 255.25L232.259 253.2ZM231.959 168.6L228.499 166.591L228.494 166.6L228.489 166.609L231.959 168.6ZM261.359 139.5L259.416 136.003L259.404 136.01L259.392 136.017L261.359 139.5ZM345.959 139.2L347.906 135.706L345.959 139.2ZM384.959 217.2L380.978 216.802L380.959 217V217.2H384.959ZM384.659 222.9V226.9H388.239L388.634 223.342L384.659 222.9ZM251.159 222.9H247.159V226.9H251.159V222.9ZM251.159 198V194H247.159V198H251.159ZM364.859 198L366.733 201.533L364.859 194V198ZM350.159 205.8L346.16 205.713L346.011 212.529L352.033 209.333L350.159 205.8ZM344.459 181.5L340.986 183.485L344.459 181.5ZM327.959 165L325.931 168.448L325.952 168.46L325.974 168.473L327.959 165ZM279.959 165L277.974 161.527L277.952 161.54L277.931 161.552L279.959 165ZM263.759 181.8L260.262 179.857L260.253 179.874L260.243 179.892L263.759 181.8ZM283.259 255.3L281.47 258.878L283.259 255.3ZM335.159 257.1L336.608 260.828L335.159 257.1ZM354.359 243.9L357.376 241.274L354.463 237.926L351.434 241.171L354.359 243.9ZM374.459 267L377.496 269.603L379.744 266.98L377.476 264.374L374.459 267ZM347.159 286.5L348.668 290.204L348.685 290.197L348.702 290.19L347.159 286.5ZM309.959 289.1C292.689 289.1 277.746 285.707 265.011 279.055L261.307 286.145C275.372 293.493 291.628 297.1 309.959 297.1V289.1ZM265.074 279.088C252.475 272.216 242.711 262.91 235.693 251.15L228.824 255.25C236.606 268.29 247.442 278.584 261.243 286.112L265.074 279.088ZM235.718 251.191C228.907 239.462 225.459 226.068 225.459 210.9H217.459C217.459 227.332 221.21 242.138 228.799 255.209L235.718 251.191ZM225.459 210.9C225.459 195.501 228.821 182.105 235.428 170.591L228.489 166.609C221.096 179.495 217.459 194.299 217.459 210.9H225.459ZM235.418 170.609C242.263 158.82 251.549 149.631 263.325 142.983L259.392 136.017C246.368 143.369 236.054 153.58 228.499 166.591L235.418 170.609ZM263.301 142.997C275.244 136.362 288.862 133 304.259 133V125C287.655 125 272.674 128.638 259.416 136.003L263.301 142.997ZM304.259 133C319.258 133 332.474 136.263 344.011 142.694L347.906 135.706C335.043 128.537 320.459 125 304.259 125V133ZM344.011 142.694C355.555 149.128 364.63 158.194 371.275 169.966L378.242 166.034C370.888 153.006 360.762 142.872 347.906 135.706L344.011 142.694ZM371.275 169.966C377.88 181.667 381.259 195.565 381.259 211.8H389.259C389.259 194.435 385.637 179.133 378.242 166.034L371.275 169.966ZM381.259 211.8C381.259 213.239 381.168 214.902 380.978 216.802L388.939 217.598C389.149 215.498 389.259 213.561 389.259 211.8H381.259ZM380.959 217.2C380.959 219.067 380.865 220.819 380.683 222.458L388.634 223.342C388.852 221.381 388.959 219.333 388.959 217.2H380.959ZM384.659 218.9H251.159V226.9H384.659V218.9ZM255.159 222.9V198H247.159V222.9H255.159ZM251.159 202H364.859V194H251.159V202ZM362.984 194.467L348.284 202.267L352.033 209.333L366.733 201.533L362.984 194.467ZM354.158 205.887C354.371 196.066 352.34 187.23 347.932 179.515L340.986 183.485C344.577 189.77 346.346 197.134 346.16 205.713L354.158 205.887ZM347.932 179.515C343.577 171.895 337.563 165.881 329.943 161.527L325.974 168.473C332.354 172.119 337.34 177.105 340.986 183.485L347.932 179.515ZM329.987 161.552C322.489 157.142 313.87 155 304.259 155V163C312.648 163 319.828 164.858 325.931 168.448L329.987 161.552ZM304.259 155C294.462 155 285.66 157.135 277.974 161.527L281.943 168.473C288.258 164.865 295.655 163 304.259 163V155ZM277.931 161.552C270.488 165.93 264.593 172.062 260.262 179.857L267.255 183.743C270.925 177.138 275.829 172.07 281.987 168.448L277.931 161.552ZM260.243 179.892C256.066 187.586 254.059 196.57 254.059 206.7H262.059C262.059 197.63 263.851 190.014 267.274 183.708L260.243 179.892ZM254.059 206.7V212.7H262.059V206.7H254.059ZM254.059 212.7C254.059 222.935 256.412 232.157 261.22 240.244L268.097 236.156C264.106 229.443 262.059 221.665 262.059 212.7H254.059ZM261.22 240.244C266.028 248.329 272.813 254.549 281.47 258.878L285.047 251.722C277.705 248.051 272.089 242.871 268.097 236.156L261.22 240.244ZM281.47 258.878C290.109 263.197 299.939 265.3 310.859 265.3V257.3C300.979 257.3 292.408 255.403 285.047 251.722L281.47 258.878ZM310.859 265.3C320.274 265.3 328.877 263.835 336.608 260.828L333.709 253.372C327.041 255.965 319.443 257.3 310.859 257.3V265.3ZM336.608 260.828C344.403 257.797 351.299 253.041 357.283 246.629L351.434 241.171C346.218 246.759 340.314 250.803 333.709 253.372L336.608 260.828ZM351.341 246.526L371.441 269.626L377.476 264.374L357.376 241.274L351.341 246.526ZM371.422 264.397C364.659 272.287 356.085 278.431 345.615 282.81L348.702 290.19C360.232 285.369 369.858 278.513 377.496 269.603L371.422 264.397ZM345.649 282.796C335.414 286.965 323.543 289.1 309.959 289.1V297.1C324.375 297.1 337.303 294.835 348.668 290.204L345.649 282.796ZM479.374 284.1L477.404 287.581L477.418 287.589L477.432 287.597L479.374 284.1ZM453.874 257.1L450.308 258.912L450.326 258.947L450.345 258.982L453.874 257.1ZM453.574 164.7L450.021 162.864L450.008 162.887L449.997 162.911L453.574 164.7ZM478.774 138L480.694 141.509L480.72 141.495L480.745 141.481L478.774 138ZM556.774 139.2L554.802 142.68L554.814 142.687L554.827 142.694L556.774 139.2ZM585.574 167.7L582.105 169.691L582.117 169.712L582.129 169.733L585.574 167.7ZM585.574 254.4L582.115 252.391L582.11 252.4L582.105 252.409L585.574 254.4ZM556.774 282.9L554.827 279.406L554.814 279.413L554.802 279.42L556.774 282.9ZM426.274 349.2H422.274V353.2H426.274V349.2ZM426.274 130.8V126.8H422.274V130.8H426.274ZM461.974 130.8H465.974V126.8H461.974V130.8ZM461.974 168.6L465.973 168.713L465.974 168.656V168.6H461.974ZM460.774 211.2L456.776 211.087L456.77 211.284L456.784 211.481L460.774 211.2ZM463.774 253.8H467.774V253.659L467.764 253.519L463.774 253.8ZM463.774 349.2V353.2H467.774V349.2H463.774ZM534.874 255L532.932 251.503L532.911 251.515L532.89 251.527L534.874 255ZM551.974 237.6L548.473 235.665L551.974 237.6ZM551.974 184.2L548.473 186.135L548.484 186.155L548.495 186.174L551.974 184.2ZM534.874 166.8L532.89 170.273L532.911 170.285L532.932 170.297L534.874 166.8ZM486.574 166.8L484.632 163.303L486.574 166.8ZM469.474 184.2L472.953 186.174L472.964 186.155L472.975 186.135L469.474 184.2ZM486.574 255L488.517 251.503L486.574 255ZM515.074 289.1C502.717 289.1 491.491 286.256 481.317 280.603L477.432 287.597C488.857 293.944 501.431 297.1 515.074 297.1V289.1ZM481.345 280.619C471.481 275.036 463.489 266.628 457.404 255.218L450.345 258.982C457.059 271.572 466.068 281.164 477.404 287.581L481.345 280.619ZM457.44 255.288C451.609 243.814 448.574 229.085 448.574 210.9H440.574C440.574 229.915 443.739 245.986 450.308 258.912L457.44 255.288ZM448.574 210.9C448.574 192.487 451.518 177.756 457.152 166.489L449.997 162.911C443.63 175.644 440.574 191.713 440.574 210.9H448.574ZM457.128 166.536C463.007 155.157 470.874 146.882 480.694 141.509L476.854 134.491C465.474 140.718 456.542 150.243 450.021 162.864L457.128 166.536ZM480.745 141.481C490.676 135.86 502.083 133 515.074 133V125C500.866 125 488.073 128.14 476.804 134.519L480.745 141.481ZM515.074 133C530.285 133 543.486 136.268 554.802 142.68L558.746 135.72C546.062 128.532 531.464 125 515.074 125V133ZM554.827 142.694C566.388 149.138 575.464 158.116 582.105 169.691L589.044 165.709C581.685 152.884 571.561 142.862 558.722 135.706L554.827 142.694ZM582.129 169.733C588.908 181.218 592.374 194.891 592.374 210.9H600.374C600.374 193.709 596.641 178.582 589.019 165.667L582.129 169.733ZM592.374 210.9C592.374 226.907 588.908 240.692 582.115 252.391L589.033 256.409C596.64 243.308 600.374 228.093 600.374 210.9H592.374ZM582.105 252.409C575.464 263.984 566.388 272.962 554.827 279.406L558.722 286.394C571.561 279.238 581.685 269.216 589.044 256.391L582.105 252.409ZM554.802 279.42C543.486 285.832 530.285 289.1 515.074 289.1V297.1C531.464 297.1 546.062 293.568 558.746 286.38L554.802 279.42ZM430.274 349.2V130.8H422.274V349.2H430.274ZM426.274 134.8H461.974V126.8H426.274V134.8ZM457.974 130.8V168.6H465.974V130.8H457.974ZM457.976 168.487L456.776 211.087L464.773 211.313L465.973 168.713L457.976 168.487ZM456.784 211.481L459.784 254.081L467.764 253.519L464.764 210.919L456.784 211.481ZM459.774 253.8V349.2H467.774V253.8H459.774ZM463.774 345.2H426.274V353.2H463.774V345.2ZM510.874 265C520.488 265 529.186 262.857 536.859 258.473L532.89 251.527C526.562 255.143 519.261 257 510.874 257V265ZM536.817 258.497C544.709 254.112 550.933 247.754 555.475 239.535L548.473 235.665C544.615 242.646 539.44 247.888 532.932 251.503L536.817 258.497ZM555.475 239.535C560.055 231.247 562.274 221.658 562.274 210.9H554.274C554.274 220.542 552.293 228.753 548.473 235.665L555.475 239.535ZM562.274 210.9C562.274 199.961 560.063 190.348 555.453 182.226L548.495 186.174C552.286 192.852 554.274 201.039 554.274 210.9H562.274ZM555.475 182.265C550.933 174.046 544.709 167.688 536.817 163.303L532.932 170.297C539.44 173.912 544.615 179.154 548.473 186.135L555.475 182.265ZM536.859 163.327C529.186 158.943 520.488 156.8 510.874 156.8V164.8C519.261 164.8 526.562 166.657 532.89 170.273L536.859 163.327ZM510.874 156.8C501.259 156.8 492.48 158.943 484.632 163.303L488.517 170.297C495.069 166.657 502.489 164.8 510.874 164.8V156.8ZM484.632 163.303C476.74 167.688 470.515 174.046 465.973 182.265L472.975 186.135C476.833 179.154 482.009 173.912 488.517 170.297L484.632 163.303ZM465.995 182.226C461.386 190.348 459.174 199.961 459.174 210.9H467.174C467.174 201.039 469.163 192.852 472.953 186.174L465.995 182.226ZM459.174 210.9C459.174 221.658 461.393 231.247 465.973 239.535L472.975 235.665C469.155 228.753 467.174 220.542 467.174 210.9H459.174ZM465.973 239.535C470.515 247.754 476.74 254.112 484.632 258.497L488.517 251.503C482.009 247.888 476.833 242.646 472.975 235.665L465.973 239.535ZM484.632 258.497C492.48 262.857 501.259 265 510.874 265V257C502.489 257 495.069 255.143 488.517 251.503L484.632 258.497ZM633.696 291H629.696V295H633.696V291ZM633.696 130.8V126.8H629.696V130.8H633.696ZM756.696 130.8H760.696V126.8H756.696V130.8ZM756.696 162.6V166.6H760.696V162.6H756.696ZM662.496 162.6L659.718 159.722L652.594 166.6H662.496V162.6ZM671.196 154.2H675.196V144.778L668.418 151.322L671.196 154.2ZM671.196 291V295H675.196V291H671.196ZM637.696 291V130.8H629.696V291H637.696ZM633.696 134.8H756.696V126.8H633.696V134.8ZM752.696 130.8V162.6H760.696V130.8H752.696ZM756.696 158.6H662.496V166.6H756.696V158.6ZM665.274 165.478L673.974 157.078L668.418 151.322L659.718 159.722L665.274 165.478ZM667.196 154.2V291H675.196V154.2H667.196ZM671.196 287H633.696V295H671.196V287ZM804.858 282.6L802.942 286.112L802.974 286.129L803.006 286.145L804.858 282.6ZM773.958 253.2L770.499 255.209L770.511 255.229L770.523 255.25L773.958 253.2ZM773.658 168.6L770.199 166.591L770.193 166.6L770.188 166.609L773.658 168.6ZM803.058 139.5L801.115 136.003L801.103 136.01L801.091 136.017L803.058 139.5ZM887.658 139.2L889.605 135.706L887.658 139.2ZM926.658 217.2L922.678 216.802L922.658 217V217.2H926.658ZM926.358 222.9V226.9H929.938L930.333 223.342L926.358 222.9ZM792.858 222.9H788.858V226.9H792.858V222.9ZM792.858 198V194H788.858V198H792.858ZM906.558 198L908.433 201.533L906.558 194V198ZM891.858 205.8L887.859 205.713L887.711 212.529L893.733 209.333L891.858 205.8ZM886.158 181.5L882.685 183.485L886.158 181.5ZM869.658 165L867.63 168.448L867.651 168.46L867.673 168.473L869.658 165ZM821.658 165L819.673 161.527L819.651 161.54L819.63 161.552L821.658 165ZM805.458 181.8L801.961 179.857L801.952 179.874L801.942 179.892L805.458 181.8ZM824.958 255.3L823.169 258.878L824.958 255.3ZM876.858 257.1L878.308 260.828L876.858 257.1ZM896.058 243.9L899.075 241.274L896.162 237.926L893.134 241.171L896.058 243.9ZM916.158 267L919.195 269.603L921.443 266.98L919.175 264.374L916.158 267ZM888.858 286.5L890.367 290.204L890.384 290.197L890.401 290.19L888.858 286.5ZM851.658 289.1C834.389 289.1 819.445 285.707 806.71 279.055L803.006 286.145C817.071 293.493 833.327 297.1 851.658 297.1V289.1ZM806.773 279.088C794.174 272.216 784.411 262.91 777.393 251.15L770.523 255.25C778.305 268.29 789.141 278.584 802.942 286.112L806.773 279.088ZM777.417 251.191C770.607 239.462 767.158 226.068 767.158 210.9H759.158C759.158 227.332 762.909 242.138 770.499 255.209L777.417 251.191ZM767.158 210.9C767.158 195.501 770.521 182.105 777.127 170.591L770.188 166.609C762.795 179.495 759.158 194.299 759.158 210.9H767.158ZM777.117 170.609C783.962 158.82 793.249 149.631 805.024 142.983L801.091 136.017C788.067 143.369 777.754 153.58 770.199 166.591L777.117 170.609ZM805 142.997C816.943 136.362 830.561 133 845.958 133V125C829.354 125 814.373 128.638 801.115 136.003L805 142.997ZM845.958 133C860.957 133 874.173 136.263 885.71 142.694L889.605 135.706C876.743 128.537 862.158 125 845.958 125V133ZM885.71 142.694C897.255 149.128 906.329 158.194 912.975 169.966L919.941 166.034C912.587 153.006 902.461 142.872 889.605 135.706L885.71 142.694ZM912.975 169.966C919.579 181.667 922.958 195.565 922.958 211.8H930.958C930.958 194.435 927.336 179.133 919.941 166.034L912.975 169.966ZM922.958 211.8C922.958 213.239 922.868 214.902 922.678 216.802L930.638 217.598C930.848 215.498 930.958 213.561 930.958 211.8H922.958ZM922.658 217.2C922.658 219.067 922.564 220.819 922.382 222.458L930.333 223.342C930.551 221.381 930.658 219.333 930.658 217.2H922.658ZM926.358 218.9H792.858V226.9H926.358V218.9ZM796.858 222.9V198H788.858V222.9H796.858ZM792.858 202H906.558V194H792.858V202ZM904.683 194.467L889.983 202.267L893.733 209.333L908.433 201.533L904.683 194.467ZM895.857 205.887C896.07 196.066 894.039 187.23 889.631 179.515L882.685 183.485C886.276 189.77 888.045 197.134 887.859 205.713L895.857 205.887ZM889.631 179.515C885.276 171.895 879.263 165.881 871.642 161.527L867.673 168.473C874.053 172.119 879.039 177.105 882.685 183.485L889.631 179.515ZM871.686 161.552C864.189 157.142 855.569 155 845.958 155V163C854.347 163 861.527 164.858 867.63 168.448L871.686 161.552ZM845.958 155C836.161 155 827.359 157.135 819.673 161.527L823.642 168.473C829.957 164.865 837.354 163 845.958 163V155ZM819.63 161.552C812.187 165.93 806.292 172.062 801.961 179.857L808.954 183.743C812.624 177.138 817.529 172.07 823.686 168.448L819.63 161.552ZM801.942 179.892C797.765 187.586 795.758 196.57 795.758 206.7H803.758C803.758 197.63 805.55 190.014 808.973 183.708L801.942 179.892ZM795.758 206.7V212.7H803.758V206.7H795.758ZM795.758 212.7C795.758 222.935 798.111 232.157 802.92 240.244L809.796 236.156C805.805 229.443 803.758 221.665 803.758 212.7H795.758ZM802.92 240.244C807.727 248.329 814.512 254.549 823.169 258.878L826.747 251.722C819.404 248.051 813.789 242.871 809.796 236.156L802.92 240.244ZM823.169 258.878C831.808 263.197 841.638 265.3 852.558 265.3V257.3C842.678 257.3 834.107 255.403 826.747 251.722L823.169 258.878ZM852.558 265.3C861.973 265.3 870.576 263.835 878.308 260.828L875.408 253.372C868.74 255.965 861.142 257.3 852.558 257.3V265.3ZM878.308 260.828C886.103 257.797 892.998 253.041 898.982 246.629L893.134 241.171C887.918 246.759 882.013 250.803 875.408 253.372L878.308 260.828ZM893.04 246.526L913.14 269.626L919.175 264.374L899.075 241.274L893.04 246.526ZM913.121 264.397C906.358 272.287 897.784 278.431 887.315 282.81L890.401 290.19C901.931 285.369 911.557 278.513 919.195 269.603L913.121 264.397ZM887.349 282.796C877.114 286.965 865.242 289.1 851.658 289.1V297.1C866.074 297.1 879.002 294.835 890.367 290.204L887.349 282.796ZM967.973 291H963.973V295H967.973V291ZM967.973 130.8V126.8H963.973V130.8H967.973ZM1005.47 130.8H1009.47V126.8H1005.47V130.8ZM1005.47 236.4H1001.47V247.4L1008.54 238.969L1005.47 236.4ZM1093.97 130.8V126.8H1092.11L1090.91 128.231L1093.97 130.8ZM1128.17 130.8H1132.17V126.8H1128.17V130.8ZM1128.17 291V295H1132.17V291H1128.17ZM1090.67 291H1086.67V295H1090.67V291ZM1090.67 185.4H1094.67V174.371L1087.6 182.836L1090.67 185.4ZM1002.47 291V295H1004.34L1005.54 293.564L1002.47 291ZM1008.77 100.8L1006.12 103.797L1006.14 103.815L1006.16 103.832L1008.77 100.8ZM995.573 67.8V63.8H991.518L991.574 67.8555L995.573 67.8ZM1020.47 67.8L1024.47 67.6889L1024.36 63.8H1020.47V67.8ZM1027.07 84.9L1024.24 87.7284L1024.28 87.7613L1024.31 87.7934L1027.07 84.9ZM1063.37 84.9L1060.68 81.946L1060.64 81.9759L1060.61 82.0066L1063.37 84.9ZM1070.57 67.8V63.8H1066.68L1066.57 67.6889L1070.57 67.8ZM1096.07 67.8L1100.07 67.8555L1100.13 63.8H1096.07V67.8ZM1082.57 100.8L1085.18 103.832L1085.19 103.827L1082.57 100.8ZM971.973 291V130.8H963.973V291H971.973ZM967.973 134.8H1005.47V126.8H967.973V134.8ZM1001.47 130.8V236.4H1009.47V130.8H1001.47ZM1008.54 238.969L1097.04 133.369L1090.91 128.231L1002.41 233.831L1008.54 238.969ZM1093.97 134.8H1128.17V126.8H1093.97V134.8ZM1124.17 130.8V291H1132.17V130.8H1124.17ZM1128.17 287H1090.67V295H1128.17V287ZM1094.67 291V185.4H1086.67V291H1094.67ZM1087.6 182.836L999.403 288.436L1005.54 293.564L1093.74 187.964L1087.6 182.836ZM1002.47 287H967.973V295H1002.47V287ZM1045.67 107.9C1030.24 107.9 1019.01 104.329 1011.38 97.768L1006.16 103.832C1015.74 112.071 1029.1 115.9 1045.67 115.9V107.9ZM1011.42 97.8027C1003.87 91.1311 999.762 81.325 999.573 67.7444L991.574 67.8555C991.785 83.075 996.474 95.2689 1006.12 103.797L1011.42 97.8027ZM995.573 71.8H1020.47V63.8H995.573V71.8ZM1016.47 67.9111C1016.7 75.9032 1019.17 82.6578 1024.24 87.7284L1029.9 82.0716C1026.57 78.7422 1024.65 74.0968 1024.47 67.6889L1016.47 67.9111ZM1024.31 87.7934C1029.65 92.8879 1036.85 95.2 1045.37 95.2V87.2C1038.3 87.2 1033.3 85.3121 1029.84 82.0066L1024.31 87.7934ZM1045.37 95.2C1053.73 95.2 1060.82 92.87 1066.14 87.7934L1060.61 82.0066C1057.13 85.33 1052.21 87.2 1045.37 87.2V95.2ZM1066.07 87.8539C1071.6 82.8063 1074.35 76.0113 1074.57 67.9111L1066.57 67.6889C1066.4 73.9887 1064.35 78.5937 1060.68 81.946L1066.07 87.8539ZM1070.57 71.8H1096.07V63.8H1070.57V71.8ZM1092.07 67.7444C1091.89 81.2959 1087.69 91.0929 1079.96 97.7727L1085.19 103.827C1095.05 95.3071 1099.86 83.104 1100.07 67.8555L1092.07 67.7444ZM1079.96 97.768C1072.34 104.329 1061.1 107.9 1045.67 107.9V115.9C1062.24 115.9 1075.61 112.071 1085.18 103.832L1079.96 97.768Z" fill="white" mask="url(#path-3-outside-2_187_585)"/>
</svg>
