<svg width="30" height="22" viewBox="0 0 30 22" fill="none" xmlns="http://www.w3.org/2000/svg">
<path d="M22.5 14L25.5 11M25.5 11L28.5 8M25.5 11L22.5 8M25.5 11L28.5 14" stroke="white" stroke-width="2" stroke-linecap="round" stroke-linejoin="round"/>
<path d="M1.5 14.001V8.00096C1.5 7.60314 1.65804 7.22161 1.93934 6.9403C2.22064 6.659 2.60218 6.50096 3 6.50096H7.0455C7.3418 6.50103 7.63148 6.41334 7.878 6.24896L14.1675 2.05496C14.3936 1.9041 14.6565 1.81752 14.928 1.80447C15.1995 1.79141 15.4694 1.85238 15.709 1.98086C15.9485 2.10933 16.1486 2.30048 16.288 2.53388C16.4273 2.76727 16.5006 3.03414 16.5 3.30596V18.696C16.5 18.9675 16.4264 19.234 16.2868 19.467C16.1473 19.6999 15.9471 19.8907 15.7076 20.0188C15.4682 20.1469 15.1985 20.2076 14.9272 20.1944C14.656 20.1812 14.3934 20.0947 14.1675 19.944L7.878 15.7515C7.63131 15.5876 7.34164 15.5005 7.0455 15.501H3C2.60218 15.501 2.22064 15.3429 1.93934 15.0616C1.65804 14.7803 1.5 14.3988 1.5 14.001Z" stroke="white" stroke-width="2"/>
</svg>
