<svg width="32" height="24" viewBox="0 0 32 24" fill="none" xmlns="http://www.w3.org/2000/svg">
<path d="M1 16.001V10.001C1 9.60314 1.15804 9.22161 1.43934 8.9403C1.72064 8.659 2.10218 8.50096 2.5 8.50096H6.5455C6.8418 8.50103 7.13148 8.41334 7.378 8.24896L13.6675 4.05496C13.8936 3.9041 14.1565 3.81752 14.428 3.80447C14.6995 3.79141 14.9694 3.85238 15.209 3.98086C15.4485 4.10933 15.6486 4.30048 15.788 4.53388C15.9273 4.76727 16.0006 5.03414 16 5.30596V20.696C16 20.9675 15.9264 21.234 15.7868 21.467C15.6473 21.6999 15.4471 21.8907 15.2076 22.0188C14.9682 22.1469 14.6985 22.2076 14.4272 22.1944C14.156 22.1812 13.8934 22.0947 13.6675 21.944L7.378 17.7515C7.13131 17.5876 6.84164 17.5005 6.5455 17.501H2.5C2.10218 17.501 1.72064 17.3429 1.43934 17.0616C1.15804 16.7803 1 16.3988 1 16.001Z" stroke="white" stroke-width="2"/>
<path d="M22.75 6.25C22.75 6.25 25 8.5 25 12.25C25 16 22.75 18.25 22.75 18.25" stroke="white" stroke-width="2" stroke-linecap="round" stroke-linejoin="round"/>
<path d="M27.25 1.75C27.25 1.75 31 5.5 31 12.25C31 19 27.25 22.75 27.25 22.75" stroke="white" stroke-width="2" stroke-linecap="round" stroke-linejoin="round"/>
</svg>
